<?xml version="1.0" encoding="utf-8"?>
<!-- Generator: Adobe Illustrator 26.0.2, SVG Export Plug-In . SVG Version: 6.00 Build 0)  -->
<svg version="1.1" id="Layer_1" xmlns="http://www.w3.org/2000/svg" xmlns:xlink="http://www.w3.org/1999/xlink" x="0px" y="0px"
	 viewBox="0 0 37 36" style="enable-background:new 0 0 37 36;" xml:space="preserve">
<style type="text/css">
	.st0{clip-path:url(#SVGID_00000008123092754508343930000014904083877040435390_);}
	.st1{fill:#D6AC70;}
</style>
<g>
	<defs>
		<rect id="SVGID_1_" x="4" y="5" width="33" height="26"/>
	</defs>
	<clipPath id="SVGID_00000181771789648820221880000013818086988868670118_">
		<use xlink:href="#SVGID_1_"  style="overflow:visible;"/>
	</clipPath>
	<g style="clip-path:url(#SVGID_00000181771789648820221880000013818086988868670118_);">
		<path class="st1" d="M26.3,5.6c0.1,0,0.2,0.1,0.3,0c0.1,0,0.2-0.1,0.3-0.2c0.2-0.2,0.2-0.3-0.1-0.4c-0.1,0-0.2,0-0.3,0
			s-0.2,0.1-0.2,0.2C26.2,5.4,26.2,5.5,26.3,5.6z"/>
		<path class="st1" d="M37,8c0-0.1-0.1-0.2-0.1-0.3c-0.1-0.1-0.2-0.2-0.3-0.2c-0.2-0.1-0.5,0-0.8,0.2c-0.5,0.5-0.5,0.9,0.1,1.1
			c0.4,0.2,0.7,0.1,1-0.1C36.9,8.5,37,8.4,37,8.3C37,8.2,37,8.1,37,8z"/>
		<path class="st1" d="M33.1,5.6c-1.7-0.1-3,0.2-3.9,0.9c-1.3,0.9-2.4,1.5-3.3,1.7c-0.3,0-0.7,0.6-1.2,1.5c-0.6,1.1-1,1.7-1.2,1.9
			c-1.6,1.3-3.1,2.5-4.7,3.8c-1.8-1.5-2.8-2.4-3.2-2.9c-0.2-0.2-0.4-0.5-0.5-0.8c-0.1-0.3-0.4-0.5-0.7-0.7c-0.4-0.2-0.9-0.4-1.4-0.4
			c-0.3,0-0.5-0.1-0.7-0.3c-0.2-0.2-0.6-0.7-1.1-1.5c-0.1-0.2-0.2-0.3-0.3-0.4c-0.3-0.2-0.6-0.4-1-0.5C9.5,7.8,9.1,7.6,8.8,7.5
			c-0.1,0-0.3-0.3-0.6-0.8C7.9,6.4,7.6,6,7.2,5.7C6.5,5.1,6,5.1,5.5,5.8c-0.3,1.4,0,2.5,0.7,3.3c1,1,1.5,2,1.6,2.8
			C7.9,12,8,12.1,8.1,12.2c0.2,0.2,0.8,0.4,1.7,0.8c0.9,0.4,1.5,0.6,1.7,0.8c0.2,0.2,1.6,1.6,4.2,4.1l-2.3,1.9
			c-5.4,4.5-8.4,7.6-9.2,9.3c-0.3,0.6-0.1,1,0.5,1.3c0.6,0.2,1.2,0.5,1.7,0.7c3.5-1.6,5.7-3.7,6.5-6.1c0.6-0.3,1.2-0.6,1.9-0.8
			c0.6-0.2,1.2-0.5,1.6-1.1c0.2-0.3,1-1.1,2.3-2.3c2.1,2,3.9,3.7,5.4,4.9c2.5,2.1,4.4,3.4,5.7,3.8c0.6,0.2,1,0.1,1.2-0.2
			c0.2-0.3,0.3-0.6,0.5-0.9c0.1-0.3,0.3-0.7,0.6-0.9c-0.7-1.3-1.6-2.5-2.7-3.4c-1-0.9-2.3-1.5-3.7-1.8c-0.3-0.5-0.5-1-0.7-1.6
			c-0.2-0.5-0.6-1-1.1-1.3c-0.7-0.5-1.4-1-2.1-1.5c1.5-1.4,2.5-2.3,3-2.6c0.3-0.2,0.7-0.4,1-0.5c0.3-0.2,0.6-0.4,0.9-0.6
			c0.3-0.4,0.5-0.8,0.6-1.3c0.1-0.5,0.9-1.1,2.2-1.8c0.5-0.2,0.8-0.6,1-1c0.2-0.4,0.4-0.8,0.6-1.2c0,0,0.4-0.3,1.3-0.8
			c0.9-0.5,1.4-1,1.4-1.4C33.8,6.2,33.6,5.9,33.1,5.6z"/>
	</g>
</g>
</svg>
