<svg width="37" height="36" viewBox="0 0 37 36" fill="none" xmlns="http://www.w3.org/2000/svg">
<g clip-path="url(#clip0_10_393)">
<path d="M11.9419 6.99408L11.7614 6.89444L11.9482 7.06051L11.9419 6.99408Z" fill="black"/>
<path d="M21.4474 32.125L21.551 32.0569L21.4254 31.9905L21.4474 32.125Z" fill="black"/>
<path d="M1.37677 27.4464L1.46939 27.3563L1.43956 27.331L1.37677 27.4464Z" fill="black"/>
<path d="M1.34853 27.5034L1.37679 27.448L1.32812 27.4875L1.34853 27.5034Z" fill="black"/>
<path d="M1.37993 27.2772H1.3815L1.2041 27.1997L1.24649 27.4274L1.24963 27.4259L1.29044 27.5097L1.32812 27.4875L1.24963 27.4259L1.3815 27.2772L1.43801 27.3278L1.49139 27.2266L1.39405 27.2645L1.37993 27.2772Z" fill="black"/>
<path d="M33.4725 29.3207L33.4709 29.3223H33.4757L33.4725 29.3207Z" fill="black"/>
<path d="M36.1303 17.6117L36.8461 16.7102L36.2182 16.6991L36.1727 14.3266L35.9372 11.9541L36.4286 9.58165L36.1711 7.3531L36.7033 7.14274L36.4945 6.91181L36.9953 3.79438L36.3281 0.650056L33.3344 0.017395L30.3658 0.808221L27.3987 0.839856L27.1836 0.998022L27.1633 0.930012L24.7833 0.428621L22.3752 0.390663L22.2512 0.84144L21.9639 1.01067L19.7661 0.487141L19.5745 0.820877L17.9074 0.78291L17.4505 1.02491L17.5588 0.775003L16.9529 0.762357L14.3265 1.10874H13.5212L13.5808 1.20047L13.5573 1.18466L13.5667 1.27164L13.0816 1.21312L13.1036 1.14985L13.011 1.19573L13.0581 1.20996L10.6515 0.922096L7.44739 0.104384L7.30769 0.589953L6.73309 0.308414L3.64205 0.490308L0.426984 0.471329L1.13342 3.34677L0.475658 6.03558L0.78963 8.71332L0.832019 8.74179L0.152258 8.98062L0.0109863 11.2914L0.128726 13.588L0.354776 15.2234L0.331205 15.2772L0.364205 15.2883L0.447373 15.8877L0.37988 15.2946L0.98272 15.5113L2.19307 16.0174L2.37045 15.4622L2.18993 15.5666L2.41755 14.9957L2.50233 14.4405L2.88694 14.6872L3.13813 15.0194L2.39716 15.4464L2.04237 17.9122L1.55256 17.6291L1.28412 16.8778L1.59809 16.688L1.60909 16.1249L0.770773 15.4923L1.15381 16.4413L0.291959 18.0008L0.959149 17.6244L0.791201 18.7869L0.621644 19.1032V19.1886L0.119297 21.6022L0.904227 24.0174L1.08946 26.4373L0.0533756 28.8936L0.786487 29.3428L0.97172 28.9474L1.1711 31.0906L0.946616 33.3049L0.362633 35.807L3.2292 34.809L3.81318 34.8549L3.832 34.6841L3.94188 34.8644L5.86653 35.0146L8.48979 35.0684L8.7127 35.2977L8.78334 35.1396L8.71427 36.0047L11.124 35.9541L13.5102 34.9055L15 35.323L15.0533 35.0589L15.0926 35.0684L15.0204 35.3278L15.8979 35.5745L18.2857 34.9862L20.6766 35.5571L22.7661 35.4433L22.584 35.2566V35.244L22.9937 35.3072L23.0016 35.2977L22.7017 35.2408L22.584 35.2313V34.7157V34.6856L22.4631 34.7853H22.4788L22.5604 35.2281H22.551L22.4348 35.1095L21.9859 34.7252L22.0644 34.7347L21.6954 34.393H22.7582L22.9152 34.121L23.157 34.6746L22.7755 34.5291L22.7347 34.5639L22.8194 34.5528L22.9858 35.1H22.8414L22.887 35.2155L22.9953 35.1285L23.0329 35.2519L23.2041 35.0178L23.8822 34.9324L23.6876 35.1127H23.6499L23.7378 35.2709L25.9796 35.4622L28.2292 35.7359V35.9193L28.2825 35.2867L31.6577 35.7722L31.4552 35.5461L31.4725 34.3361L31.8116 35.3515L31.9199 34.6809L31.7629 35.9383L32.0094 35.5903L32.2543 35.7026L32.3093 35.3341L35.9199 35.8086L35.9953 35.5508L35.8713 35.5208L36.4442 33.066L36.113 30.6129L35.8681 29.599L36.0157 29.6212L35.7331 26.9435L36.2464 26.9213V26.8944L36.0722 24.6342L36.0565 24.6627L35.9309 24.4176L35.7551 24.5631L35.5981 24.6263L34.9435 24.1803L34.9341 23.9668L36.033 24.1439L35.9969 23.6694L36.0785 23.4939H36.1115L36.1648 23.7438L36.1884 23.4891L36.4097 23.4733V22.8406L35.7975 22.8312L35.551 22.9387L35.1836 22.2554L36.0549 22.4136L36.4097 22.7916L36.4223 21.2527L36.4552 19.0384L36.7457 18.7426L36.2559 18.847L35.7488 18.1716L35.7739 17.841L36.1303 17.6117ZM36.4191 4.49347L35.9231 5.02807L36.0612 5.21787L35.6499 4.93159L36.4191 4.49347ZM35.3893 2.8011L35.4537 2.59865L35.7457 2.5164L35.7661 2.83274V2.92764L34.9105 3.44642L35.3893 2.8011ZM34.6876 24.4017L34.4176 24.1186L34.5746 24.0174L34.2998 23.3341L34.8901 22.6508L34.6436 23.9478L34.6876 24.4017ZM34.1915 16.4492L34.405 16.291L34.2056 16.3575L34.7315 16.1281L34.9356 16.2673L34.1915 16.4492ZM34.102 30.0055L34.0722 29.9897L34.124 29.6291L34.146 29.6164L34.1287 29.5943L34.1444 29.4947L34.2606 29.4472L34.4678 29.4583L34.102 30.0055ZM33.9717 29.7556L34.0533 29.9802L33.9623 29.9312L33.9717 29.7556ZM33.7096 18.7252L34.1947 18.7457L33.7096 18.7252ZM28.3014 33.8221L28.4819 33.792L29.2009 34.1858L28.3014 33.8221ZM22.9294 33.7525L22.8995 33.7414L22.9702 33.5326L22.9294 33.7525ZM22.876 31.7881L22.3359 32.6026V31.9573L22.4819 31.6868H23.1381L22.876 31.7881ZM19.1648 32.2515V32.2151L19.1758 32.2578L19.1648 32.2515ZM17.7818 27.7216L17.8681 27.5508L18.4081 27.4259L17.7818 27.7216ZM14.7362 31.6378L14.6421 31.3025L14.7504 31.2851L14.7362 31.6378ZM14.3799 31.4607L14.2119 31.3737L14.4082 31.3404L14.3799 31.4607ZM15.2559 31.6805L14.9764 31.2471L15.0942 31.2282L15.2559 31.6805ZM15.0832 31.206L15.0926 31.2329L14.967 31.2424L14.8006 30.983L14.9576 31.0494L15.1146 30.9087L15.1444 30.9229L15.0596 30.8406L14.9293 30.8897L14.9529 30.7537L14.9231 30.7268L14.7394 30.9545L14.7723 30.9688L14.7598 31.2566L14.6373 31.2661L14.5463 30.9498L14.4631 31.1506L14.4317 31.2835L14.0596 31.3104L14.0958 31.3484L13.8932 31.2772L14.1507 31.119L14.3328 30.8818L14.9105 30.6983V30.4278L15.0377 30.5528L14.9607 30.7631L15.0565 30.8438L15.1915 30.7046L15.6138 31.119L15.5384 31.2677L15.0832 31.206ZM13.8822 28.7212L13.81 28.8667H13.7362L14.0078 28.3511L14.113 28.8256L13.9262 28.843V28.813L13.8822 28.7212ZM12.8665 31.1601L12.8948 31.1285V31.1127L12.9277 31.1712L12.8916 31.1807L12.8665 31.1601ZM7.61223 29.7746L7.36732 29.7588L7.35947 29.6813L7.58713 29.762H7.59966L7.54945 29.6418L7.67501 29.6196L7.60123 29.7651L7.61223 29.7746ZM7.00153 29.7351L6.89794 29.3998L7.25744 29.6813V29.6386L7.28569 29.6576L7.29511 29.6228L7.35165 29.6449L7.32022 29.5263L7.25115 29.5469L7.21976 29.0423L7.65462 28.726L7.58555 29.3808L7.60909 29.4124L7.55256 29.6307L7.35475 29.6433V29.6718L7.28097 29.6512L7.27158 29.7477L7.00153 29.7351ZM6.36263 31.5287L5.5777 32.3084L5.90578 31.3215L6.11144 31.0526L5.96702 31.002L6.12401 30.915L6.09576 30.5306L6.35634 30.7869L6.37673 30.7774L6.35791 30.7885L6.85083 31.274L6.35791 31.1981L6.36263 31.5287ZM3.25273 25.0391L3.21505 24.8715L4.0518 24.9126L3.25273 25.0391ZM3.50706 26.3804L3.46153 26.6856L2.967 26.4278L3.50706 26.3804ZM3.854 21.1277L3.98741 20.6849H4.13501L3.854 21.1277ZM3.72369 4.44127L4.16168 4.39699L4.03294 4.71332L3.72369 4.44127ZM3.98584 7.37999L3.67187 7.57453L3.58399 8.51087L3.18995 8.0949L3.29669 7.46224L3.64834 6.56702L3.98584 7.37999ZM10.5792 16.503L10.6938 16.2515L10.8289 16.3796L10.7849 16.2088L11.3987 16.0047L11.3186 16.2262L10.9026 16.6611V16.6975H10.6766L10.5792 16.503ZM12.3485 11.3642L11.6734 11.7485L11.3422 11.8513L12.3485 11.3642ZM13.405 13.104L13.5903 13.1831V13.5358L13.3155 13.5089L13.2543 14.238L13.1444 14.3503L12.7315 14.1004L13.1428 13.7841L13.2276 13.5057L12.573 13.4393L12.3014 12.2768L13.2339 13.1862L13.3391 13.1388L13.3501 13.1056V13.1356L13.405 13.104ZM25.157 9.99288L25.1397 11.2313L24.9968 10.6129L24.8712 10.034L24.6059 9.50256L25.0612 9.35547L25.3359 9.98813L25.157 9.99288ZM25.6421 11.187L24.9529 11.3341L24.9686 11.2693L25.6421 11.187ZM26.5416 10.9498L26.7661 11.0779L27.2496 11.9383L26.3579 11.9573L26.6263 11.8339V11.2013L26.5416 10.9498ZM27.8555 12.9506L27.8932 12.9363V13.0043L27.9089 13.0312H27.8917V13.1404L27.5981 13.7367V13.085L27.6876 12.9632L27.5981 12.9332V12.5425L27.8555 12.9506ZM33.7833 16.5409L33.9937 16.4492L33.9701 16.4966L33.7833 16.5409ZM33.8084 12.843L33.8336 13.1119L33.7017 12.9537V12.9442L33.8084 12.843ZM31.8603 21.6781L32.0926 21.7398L32.1632 22.1526L31.7975 22.1178V21.6939L31.8603 21.6781ZM32.6923 26.3345L32.1947 26.363V25.2258L32.8399 26.2459L32.6954 26.3487L32.6923 26.3345ZM31.7975 29.9154L31.9372 30.2412L31.7975 30.3171V29.9154ZM23.4537 8.66113L23.5055 8.67536L23.4537 8.6896V8.66113ZM29.0502 10.4848L28.9607 10.2586L29.0502 10.1922V10.4848ZM28.9937 18.0909L28.9529 18.4073L29.0502 18.3883V19.0352L28.2496 18.8248L28.9466 19.5524L27.7048 19.516L28.1208 17.9897L28.1617 17.8727L28.7975 18.0308L28.3265 18.7363L28.9937 18.0909ZM27.5918 15.07H27.6735L27.5918 15.0811V15.07ZM27.5918 20.2214L28.0628 20.6232L27.8744 21.123L27.5887 20.9996L27.5918 20.2214ZM28.1397 20.5741L28.7975 20.4603L27.9215 21.0091L28.1397 20.5741ZM27.8948 14.741H28.1083V14.8122L27.5981 14.6682V14.6414L28.8822 14.1036L27.8948 14.741ZM27.5997 14.344V14.4484V13.9359L28.4066 13.6939L27.5997 14.344ZM28.1931 21.6576L28.1632 21.6417L28.3736 21.4962L28.248 20.9996L28.945 20.8066L28.7472 21.4187L28.6876 21.3223L28.3878 21.4931L28.7158 21.5168V21.5263V21.6576H28.1931ZM29.0502 8.50612L28.9199 8.60103L28.8634 8.40965L28.7158 7.59826L29.0502 7.9304V8.50612ZM28.7566 12.5631L28.4788 13.1261L28.1381 12.843L28.4992 12.7054L28.7566 12.5631ZM28.3328 8.51878L28.6625 8.17872L28.2386 8.93159H28.0298L28.3328 8.51878ZM28.3987 7.25346L28.3846 6.96876L28.5102 7.0257L28.3987 7.25346ZM28.27 10.0672L28.4725 9.23211L28.5117 10.7473L28.0596 10.7331L27.9027 10.2143L28.27 10.0672ZM23.4537 12.2673V11.9921L23.6295 11.9684L23.5337 12.2673H23.4537ZM24.0675 6.64926V6.63029V6.64768H24.0534V6.74259L24.0204 6.90866H23.7613L24.0094 6.96401L23.8524 7.79596L23.6829 7.25978L23.4694 7.34677V6.74416L24.0973 6.44523L24.1161 6.6635L24.0675 6.64926ZM13.8006 6.18742H13.5903L13.8838 5.87109L13.8006 6.18742ZM13.5463 19.4733L13.584 19.5287L13.5651 19.3847H13.551L13.5667 19.0036L13.5793 18.8976L14.1099 19.6615L14.0926 19.796H13.5164L13.5463 19.4733ZM12.7723 16.6928H12.3234V16.6469L12.7723 16.6548V16.6928ZM11.4552 12.6611L10.7378 12.3954L11.1962 12.106L11.3077 12.4777L11.4552 12.6611ZM11.259 13.3349L11.887 13.1246L11.73 13.6718L11.6452 13.7066L11.9451 14.6303L11.1601 14.6477L10.8744 13.9312L10.653 13.9786L11.259 13.3349ZM5.7645 25.2827L5.12713 25.7319L5.28412 24.9174L5.45682 23.7343L6.06119 23.9984L6.07062 24.0364V25.2479L5.7645 25.2827ZM4.85869 12.8193L4.49919 12.3843L4.75352 12.3559L4.86498 12.658L4.85869 12.8193ZM9.62008 9.77935L9.76921 9.56742L9.80689 10.0988L9.62008 10.0625V9.77935ZM9.65305 11.2202L9.87438 11.8102L9.62008 11.9905V11.2392L9.65305 11.2202ZM5.52117 23.4701L6.06747 23.5128V23.9114L5.52117 23.4701ZM6.06747 23.4812L5.92306 23.2408L6.06747 23.2218V23.4812ZM6.06747 21.3571V22.2728L5.64205 22.692L5.73783 21.3713L6.06747 21.3571ZM6.01255 27.0779L6.06747 27.0194V27.0605L6.01255 27.0779ZM9.09417 16.6928L9.45053 16.6801L9.42857 16.6928H9.09417ZM9.62008 7.95888V7.62514L9.6499 7.69948L9.90734 7.79913L9.62008 7.95888ZM4.85869 8.64214L4.37202 8.23408L4.85869 8.04902V8.64214ZM4.65932 10.5401L4.85869 10.9814V11.4701L4.51647 11.3246L4.14754 10.5955L4.65932 10.5401ZM4.1554 14.7268L4.94033 15.0431L4.16483 15.2171L3.9372 15.0146L4.1554 14.7268ZM4.25428 16.4397V16.9775L3.88382 16.6611L4.25428 16.4397ZM3.94817 17.686L4.01413 17.8584L3.65305 18.3788L3.94817 17.686ZM4.1805 20.6406L4.10201 20.4017L4.08476 20.4191L4.03294 20.5314L4.06905 20.4065L4.76763 20.0759L4.1805 20.6406ZM4.54786 23.4575L4.60125 22.9371L5.05964 23.5603L4.54786 23.4575ZM4.72838 23.6789L4.59811 23.9431L4.25428 23.6014L4.72838 23.6789ZM6.43955 31.6299L7.33593 31.5777L7.17895 32.0522L7.33593 32.4919H6.40187L6.43955 31.6299ZM7.69544 29.5927L7.66248 29.463L7.75507 29.5927H7.69544ZM9.89324 28.4444L9.61851 27.9272L9.86342 27.5524L9.67344 27.38H10.0973L10.0361 27.7106L9.92306 27.6062L9.89324 28.4444ZM12.1507 27.38L12.0753 27.5476L12.0597 27.38H12.1507ZM13.0016 21.3697L13.3987 21.1926L13.0016 21.444V21.3697ZM15.1083 30.3488L14.9199 30.2934V30.2728L15.1099 30.3456L15.1083 30.3488ZM14.4254 28.6722L14.8964 27.7359L14.9121 28.514L15.102 28.4666L14.4254 28.6722ZM14.5824 26.0087L14.7048 25.7556H14.9686H15.1256L14.5824 26.0087ZM16.9026 26.083L17.2292 25.7477H17.3391L17.1978 26.6018L17.1727 26.3092L16.7017 26.0688L16.9026 26.083ZM24.8681 31.7169L24.8509 31.6726H24.9074L24.8681 31.7169ZM31.9325 27.6615L31.8932 27.5508L31.9309 27.3689L32.7347 27.5935L31.9827 27.894L31.9325 27.6615ZM33.0314 26.9862L33.0219 27.1807L32.8053 26.5813L33.0314 26.9862ZM32.3249 24.5567V23.9731L32.8399 23.6821L32.7614 23.4654L33.7221 23.1317L33.3579 23.6995L32.3249 24.5567ZM31.1507 21.6497H30.8571L30.642 21.55L30.5385 21.4614H31.1224L31.1507 21.6497ZM34.5808 16.0095L34.719 16.1044L34.5746 16.0728L34.5808 16.0095ZM34.6923 15.2392L34.5196 15.1649V14.5544L35.1475 14.9735L34.6923 15.2392ZM34.2935 12.1028L34.0753 12.34L34.0235 12.3163V12.3321L33.7268 12.2151L33.7158 12.1977V12.0395L34.5698 12.087L35.3548 12.0016L35.259 12.6105L34.2935 12.1028ZM35.1632 3.86081L35.2982 3.71213L35.4301 4.12969L35.1632 3.86081ZM33.9435 8.61842V8.4049L34.6028 7.90351L34.6169 8.53618L34.5541 8.71649L34.8304 9.50731L34.2653 9.4314L34.215 9.11507L33.9121 8.87148L33.9435 8.61842ZM32.5306 2.65559L33.4034 2.29814L33.0015 2.65876L32.6876 3.40688L32.0989 3.05575L32.5306 2.65559ZM31.9984 4.07908L32.1067 4.26255L31.686 4.45868L31.9984 4.07908ZM31.8916 5.25425H31.4097L31.4599 5.04388L31.8916 5.25425ZM28.6405 6.96876L28.4662 6.75523L28.8461 6.39145L28.876 6.58916L28.6405 6.96876ZM28.4081 5.04547L28.5808 4.84618L28.6687 5.2147H28.5196L28.7755 5.92013L28.843 6.3614L28.372 6.11308L28.4097 6.00711L28.5934 6.13681L28.7582 5.93278L28.4945 5.75405L28.3924 5.89166L28.1287 5.80941L28.4427 5.7841L28.518 5.21945L27.8791 5.24159L28.4081 5.04547ZM27.7268 10.2886L27.9011 10.2191L27.6106 10.8232V10.8375L27.5494 11.0732L27.5793 10.7663L27.2465 10.004L27.7268 10.2886ZM26.8367 9.172L27.2449 9.65599L26.8069 9.33966L26.7425 9.60696L25.9796 9.39501L26.8367 9.172ZM25.1099 7.80862L24.7724 8.17081L24.697 8.24673L24.2354 7.9304L24.4254 7.77223L24.2543 7.21075L24.2025 7.04468L24.2715 7.03044L24.259 7.0083L24.3249 7.02253L24.2433 6.97825V6.9656L25.0282 7.29932L25.9827 7.45749L25.1099 7.80862ZM25.7818 2.57493L25.4568 3.22973L25.6405 3.3879L24.6028 3.63463L25.3422 2.81376L25.5714 2.8359L25.3218 2.38038L25.7818 2.57493ZM24.9592 2.8011L24.967 2.85488L24.854 3.14748L24.9592 2.8011ZM24.3485 0.776586L25.1507 0.84618L24.6044 1.10557L24.4474 1.3871L23.675 1.29379L24.3485 0.776586ZM22.81 1.53104L22.8744 1.34599L23.0314 1.33175L23.2386 1.07077L24.1805 1.75246L24.2512 1.6544L24.5432 1.80308L24.7818 2.2934L24.0565 2.01186L23.697 2.431L24.1318 1.82364L22.7347 1.71451L22.81 1.53104ZM23.0267 3.47805L23.2245 3.97469L22.7205 3.72162L22.4772 3.83551L23.0267 3.47805ZM22.5557 5.19256L22.7833 5.4994L22.3799 5.9739L22.2041 6.16845L21.8697 5.12139L22.5557 5.19256ZM20.022 5.79201L20.2213 6.18584H19.2433L19.1915 6.04033H19.0455L19.4301 4.90945L20.022 5.79201ZM18.7661 1.83788L19.0204 1.85686L19.6279 2.50533L19.2339 2.88652L18.8257 2.40095L18.2873 1.83313L18.4443 1.81257L18.7661 1.83788ZM18.1742 1.84895L18.1962 1.90272L18.1114 1.85686L18.1742 1.84895ZM18.2668 2.0862L18.3469 2.29023L17.8587 2.62554L18.2668 2.0862ZM16.2496 1.76987L16.3265 2.57809L15.9592 2.08777L16.2496 1.76987ZM14.3061 5.79833L14.5761 5.71609L14.8085 6.01344L14.3061 5.79833ZM13.6217 1.24476V1.25425H13.584L13.6217 1.24476ZM12.9937 1.44721L13.0769 1.19256L13.7049 1.3792L13.73 1.41874L12.8085 1.70343L12.9937 1.44721ZM12.7143 3.97785L12.9859 3.99209L13.5164 4.61051L12.9811 4.47924L12.7001 4.67695L12.6436 4.50138L12.2967 4.20561L12.7143 3.97785ZM12.2936 6.35033L13.2998 7.45749L12.0643 7.01304L12.1256 7.07631L12.0173 7.10161L11.6436 7.05892L11.0157 7.29774L11.7473 6.93871L11.5903 6.72676H12.0989L12.2936 6.35033ZM11.7315 2.25069L11.664 2.78687L11.2998 2.47054L11.7315 2.25069ZM10.9074 1.0692L11.0816 1.47726L10.6311 0.979043L10.9074 1.0692ZM10.5526 4.14551L10.6735 4.57255L10.113 4.11862L10.5526 4.14551ZM9.46153 3.07947L9.72211 3.64096L9.31083 3.63147L9.46153 3.07947ZM5.6248 1.7841L5.5777 2.39936L4.94976 2.29498L5.6248 1.7841ZM5.11617 4.12494L5.40343 3.91617L6.05494 3.75801L6.28256 3.12535L6.8524 3.04784L6.34063 3.34203L6.54315 3.75326L6.15225 4.03321L6.10201 4.73863L5.05178 4.23408L4.89479 4.31633L5.11617 4.12494ZM5.1397 4.87939L4.94504 5.67022L4.24646 6.38987L4.37988 5.09608L4.75824 5.55001L5.1397 4.87939ZM3.41286 2.88177L4.59339 3.33096L4.05652 3.66152L3.35633 3.38631L3.13656 3.89877L3.09731 3.10794L3.41286 2.88177ZM2.4929 5.70186L2.56201 5.7414L2.29196 6.14313L1.63577 5.66864L1.58399 5.74614L1.57456 5.62436L1.55727 5.6117H1.57456L1.51174 4.71016L1.394 4.53776L2.24961 4.74179L1.66559 5.62119L2.4929 5.70186ZM1.84457 12.2325L1.35161 13.1546L1.25273 12.7608L1.84457 12.2325ZM1.5306 4.49347L1.36261 4.4824L1.1962 4.23724L1.5306 4.49347ZM1.23859 14.1036L1.85714 13.6038L1.92778 14.2981L1.23859 14.1036ZM2.1444 10.3772L2.48351 9.72241L2.57611 10.3725L2.70014 10.6888L2.1444 10.3772ZM2.77234 9.67338L3.26687 9.42665L3.38933 8.58679L3.7033 9.80783L3.18681 10.3488L2.77234 9.67338ZM3.04078 11.5967L3.66873 11.554L3.72526 11.3958L4.02509 12.0791L3.90892 12.1265L4.06591 12.2467L3.6248 12.1186L3.50706 12.3527L3.04078 11.5967ZM3.27469 18.3978L3.18052 18.556L3.38304 18.7758L3.40029 18.8486L3.46153 18.8185L3.405 18.8723L3.45368 19.0842L3.29669 18.9751L3.1287 19.1332L3.05021 19.1491L3.28098 19.8323L3.70015 19.9636L3.04864 20.1597L3.03764 19.1506L2.64832 19.2282L3.23544 18.9324L2.71585 18.5733L2.47094 18.5828L3.27469 18.3978ZM2.4097 23.2297L2.0408 23.1412L2.25118 22.7805L2.4097 23.2297ZM0.981148 28.9126L1.32337 28.1835L1.79432 28.0332L1.96545 27.709L1.25116 27.6963L0.937188 27.429L0.962292 27.0336L1.99998 26.7331L1.50392 27.4433L2.08162 27.535L2.30924 27.2851L3.4521 26.8406L3.08946 27.2044L4.17268 26.9735L4.15383 27.7786L4.23861 27.9083L3.56984 27.4227L3.60595 28.6295L2.98586 28.2531L3.07064 29.2717L2.84455 27.9399L1.84457 28.8256L1.58552 28.9601L1.17267 29.4931L0.981148 28.9126ZM2.10201 30.5733L2.68442 30.0229L3.03454 30.6445L2.38459 30.6904L2.10201 30.5733ZM3.2794 31.6505L3.01568 32.4571L3.21663 30.8865L3.79118 31.0557L3.85871 31.3974L3.4521 31.6014L3.2794 31.6505ZM3.97645 33.0739L3.55884 32.9158L4.25742 32.3986L3.97645 33.0739ZM4.18836 26.344L4.17736 26.7726L3.91678 26.257L4.33592 25.9755L4.80687 26.0704L4.86026 26.0324L4.43484 26.7742L4.18836 26.344ZM5.74411 33.3318L6.01255 32.9379L6.15225 33.4994L6.30924 34.1115L5.74411 33.3318ZM7.44739 33.9992L6.97643 34.5053L6.90108 33.7145L7.20562 33.5563L8.10201 33.3792L7.44739 33.9992ZM8.15382 31.9937L8.03765 32.0822L7.62009 32.7608V31.8576L7.83985 31.5872L7.47249 31.5097L7.43482 30.8106L8.1915 31.0874L7.75507 30.3725L7.46624 30.3092L7.40971 30.363V30.2966L7.25273 30.2618L7.39089 30.159L7.416 30.1858V30.2001V30.2966L7.4772 30.3092L7.58084 30.2127L7.7284 29.9075L7.46153 30.1068L7.42543 30.1748V30.1384L7.46624 30.1068L7.64519 29.7762L7.68915 29.841L8.00312 29.9549L8.0769 30.0815L7.60594 30.2001L8.23389 30.469L7.96231 30.4104L8.78648 30.8849L8.86026 31.573L8.79434 31.5223L8.70956 31.6346L8.75823 31.739L8.15382 31.9937ZM11.3045 32.8652L10.6012 33.0233L10.8446 33.5864L10.2684 34.3772L9.98116 34.0229L9.97016 33.5769L9.93877 33.6149L9.88538 33.588L10.281 33.134L10.5777 33.0929L9.91363 32.7655L11.0125 32.8841L10.4207 32.4096L11.3705 32.3764L11.3045 32.8652ZM10.8336 28.3132L10.5526 28.4713L10.069 27.8703L10.9576 27.4227L11.3909 28.068L10.8336 28.3132ZM11.6389 31.9431L12.3642 30.7268L12.2731 30.6524L12.3752 30.7094L12.5322 30.4437L12.4804 30.7679L12.6813 30.8786L12.6625 30.8928L12.6468 30.9529L12.4725 30.8138L12.4443 30.9877L12.6012 31.1048L12.5855 31.1633L12.7268 31.2234L12.4929 31.1902L12.719 31.2456L12.6263 31.4891L12.9042 32.0617L12.1774 31.7707L12.0361 32.6643L11.5918 31.9953L11.6389 31.9431ZM12.4992 34.7141L12.0031 34.159L12.9969 35.0621L12.4992 34.7141ZM13.022 30.2191L13.6295 29.0708L13.7347 29.1546L13.7253 29.2195L13.7849 29.1926L13.9341 29.3096L14.022 29.8663L14.2983 29.928L14.5196 30.0688L14.1554 30.4958L13.6138 30.6081L13.022 30.2191ZM14.5463 32.1724L14.573 31.6062L14.7472 31.7074L14.7959 31.9193L14.5463 32.1724ZM15.124 34.741L15.1067 34.9719L15.0628 35.0036L15.1177 34.7378L14.8289 34.5939L15.1209 34.7173L15.1648 34.5053L15.4913 34.9213L15.124 34.741ZM16.2229 32.0332L16.1146 31.3626L16.3422 31.8244L16.2229 32.0332ZM17.1428 31.3816L17.022 31.6505L16.6107 31.1064L17.1428 31.3816ZM17.1507 34.6303L16.9168 33.9976L17.2983 34.1922L17.1507 34.6303ZM17.4898 31.0779L17.1758 30.9609L17.7127 30.5765L18.0722 31.2218L17.4898 31.0779ZM18.0722 30.4183L17.5322 29.6275L17.9905 30.0514L18.1601 29.4662L18.4741 29.7019L18.405 30.2981L18.0722 30.4183ZM20.2182 31.089L20.3014 30.5718L20.1993 30.314L20.4772 30.9261L20.2182 31.089ZM21.4396 32.1297L21.4631 32.446L21.1868 32.7987L20.5416 31.7564L20.5275 31.2313L20.6295 31.4085L20.9199 31.4844V31.6726H21.3783L21.5965 32.1139L21.6201 31.6726H21.7127V32.3053L21.4396 32.1297ZM21.9764 33.1356L22.2904 33.4899L22.113 33.4203L21.9764 33.1356ZM24.3815 32.7323L23.9639 32.968L23.8069 32.8351L23.6342 32.3353L24.2778 32.1613L24.2433 32.1202L23.967 32.0427L24.7394 31.8466L24.7896 31.8782L24.8289 31.8244L24.8979 31.807L24.8791 31.7612L24.9607 31.7106L24.9026 31.8988L24.9733 31.9541L24.9403 31.9826L24.9874 31.9699L24.3815 32.7323ZM26.675 31.6726H26.8446L26.7724 31.7628L26.675 31.6726ZM27.8242 34.4326L27.8854 34.1858L27.8964 33.4504L28.0267 34.4326H27.8242ZM29.6154 33.7177L29.8116 33.6607V33.4266L30.3171 34.7189L29.6154 33.7177ZM30.6295 33.289L30.9105 32.8145L31.1491 32.1076L31.1413 32.5046V32.7007L31.1868 32.1882L31.4913 32.6042L31.6232 32.7465L31.6891 32.9047L30.9717 32.8588L31.3202 33.8964L30.6295 33.289ZM32.1868 29.1957L32.4395 29.3207L32.5557 29.2368L32.9482 29.2653L33.3642 29.1957L33.4662 29.24L34.0345 28.6516L33.3155 29.6006L33.3501 29.6734L33.8665 29.3571V29.4488L33.934 29.6323L33.9152 29.675L33.3846 29.7493L33.4348 29.8553L32.9168 29.9375L32.6436 30.2175V30.1099L32.4427 29.4852H32.3391L32.1868 29.1957ZM32.686 30.3298L34.0565 30.0656L33.9623 30.2064L33.6483 30.6081L33.5808 30.6176V30.6398H33.5651V30.6224L33.3924 30.6461L32.686 30.3298ZM34.0282 32.0538L34.0377 31.5065L34.27 31.6394L34.1664 31.7975L34.0282 32.0538ZM34.438 31.5793V31.5714H34.4537L34.438 31.5793ZM34.281 31.652L34.3218 31.6758L34.2402 31.7453L34.281 31.652ZM34.5086 31.4939L34.3077 31.3468V31.4211L34.0801 31.1491L34.8022 30.9197L34.5086 31.4939ZM35.1475 27.2234L34.3359 27.0826L34.3673 27.2503L34.3485 27.5113L34.3579 27.3104L34.1758 26.48L35.1475 27.2234ZM35.8571 18.7094L35.135 18.6034H35.3375L35.8571 18.7094ZM35.6625 17.9375L35.6389 16.8683L35.854 16.7434L35.1836 16.3321L35.7833 16.582H36.0141L36.0251 16.813L35.6625 17.9375Z" fill="black"/>
<path d="M22.2826 34.9308L22.4662 34.7805L22.0675 34.7315L22.2826 34.9308Z" fill="black"/>
<path d="M27.898 13.0265L27.8995 13.0059L27.865 12.9521L27.7755 12.9869L27.898 13.0265Z" fill="black"/>
<path d="M24.2998 1.84262L24.1852 1.76038L24.135 1.82997L24.2998 1.84262Z" fill="black"/>
<path d="M27.5714 10.7758L27.6028 10.847V10.8438L27.5934 10.5496L27.5714 10.7758Z" fill="black"/>
<path d="M33.5651 30.6303L33.5808 30.6271L33.5965 30.3994L33.5651 30.6303Z" fill="black"/>
<path d="M27.7504 12.8762L27.6891 12.9585L27.708 12.9648L27.7504 12.8762Z" fill="black"/>
<path d="M27.7755 12.987L27.708 12.9648L27.6829 13.0218L27.7755 12.987Z" fill="black"/>
<path d="M1.57457 5.63384L1.63422 5.67813L1.66562 5.63226L1.573 5.62277L1.57457 5.63384Z" fill="black"/>
<path d="M28.5102 5.22577H28.5149L28.5118 5.21628L28.5102 5.22577Z" fill="black"/>
<path d="M22.5887 34.5813L22.5872 34.6809L22.7332 34.5607L22.5887 34.5813Z" fill="black"/>
<path d="M14.0847 30.2839L14.0204 29.8774L13.8179 29.8315L14.0847 30.2839Z" fill="black"/>
<path d="M23.0612 35.4227L22.7645 35.4385L22.8163 35.4939L23.0612 35.4227Z" fill="black"/>
<path d="M36.3045 29.6513L36.0094 29.6086L36.0188 29.7019L36.3045 29.6513Z" fill="black"/>
<path d="M2.3595 15.4496L2.38618 15.4338L2.40502 15.3088L2.3595 15.4496Z" fill="black"/>
<path d="M36.5275 26.896L36.2402 26.9086L36.3108 27.3531L36.5275 26.896Z" fill="black"/>
<path d="M36.3281 24.1281L36.2842 24.174L36.0236 24.1313L36.0612 24.6216L36.3281 24.1281Z" fill="black"/>
<path d="M36.449 22.8264L36.4066 22.7821V22.8264H36.449Z" fill="black"/>
<path d="M23.0486 35.3025L23.0314 35.2471L22.9984 35.293L23.0486 35.3025Z" fill="black"/>
<path d="M18.2904 0.559906L17.5761 0.71649L17.5588 0.754449L17.9073 0.762358L18.2904 0.559906Z" fill="black"/>
<path d="M14.9388 35.6046L15.0173 35.323L14.9969 35.3183L14.9388 35.6046Z" fill="black"/>
<path d="M10.8524 13.8616L10.8822 13.9375L11.0298 13.9059L10.8524 13.8616Z" fill="black"/>
<path d="M13.5008 0.934743L13.3988 0.243561L13.1036 1.13403L13.5008 0.934743Z" fill="black"/>
<path d="M3.73785 35.516L4.00316 34.9719L3.9388 34.8644L3.81164 34.8549L3.73785 35.516Z" fill="black"/>
<path d="M13.2371 13.501L13.325 13.5105L13.3564 13.1309L13.3485 13.1341L13.2371 13.501Z" fill="black"/>
<path d="M32.8995 29.9628L32.9199 29.9597L32.9419 29.9359L32.8995 29.9628Z" fill="black"/>
<path d="M7.69861 30.2807L7.75983 30.382L7.94194 30.4215L7.69861 30.2807Z" fill="black"/>
<path d="M8.12714 32.0142L8.15225 32.0032L8.25272 31.9272L8.12714 32.0142Z" fill="black"/>
<path d="M3.03613 19.168L3.04869 19.1649L3.03613 19.1269V19.168Z" fill="black"/>
<path d="M9.92153 27.4591L9.85559 27.5587L9.91525 27.6125L9.92153 27.4591Z" fill="black"/>
<path d="M15.124 34.7109L15.1224 34.7299L15.416 34.8533L15.124 34.7109Z" fill="black"/>
<path d="M6.15696 4.04745L6.17894 3.73428L6.05806 3.76592L5.88538 4.24041L6.15696 4.04745Z" fill="black"/>
<path d="M8.61227 31.6568L8.65465 31.6236L8.24806 31.1016L7.8446 31.5983L8.41603 31.7185L8.61227 31.6568Z" fill="black"/>
<path d="M6.3642 30.7758L6.36263 30.7742L6.12872 30.9023L6.13186 30.9371L6.3642 30.7758Z" fill="black"/>
<path d="M8.6719 31.6362L8.61224 31.6568L8.25275 31.9273L8.6719 31.6362Z" fill="black"/>
<path d="M24.9451 31.9921L24.2826 32.1708L24.4694 32.3938L24.9451 31.9921Z" fill="black"/>
<path d="M15.1193 34.7284L15.1146 34.7473L15.1225 34.7505V34.7299L15.1193 34.7284Z" fill="black"/>
<path d="M33.2951 29.6449L33.3155 29.618L33.179 29.3318L33.2951 29.6449Z" fill="black"/>
<path d="M33.0753 29.7999L32.9419 29.9359L33.1617 29.8047L33.0753 29.7999Z" fill="black"/>
<path d="M2.42227 27.5999L2.07847 27.5461L2.02509 27.6046L1.96387 27.7201H1.978L2.42227 27.5999Z" fill="black"/>
<path d="M3.29516 18.9909L3.40348 18.8881L3.3972 18.866L3.23236 18.9482L3.29516 18.9909Z" fill="black"/>
<path d="M32.4458 29.5057L32.8305 29.5247L32.4396 29.3302L32.3987 29.3602L32.4458 29.5057Z" fill="black"/>
<path d="M12.4772 30.7774L12.372 30.7189L12.3626 30.7363L12.4694 30.8233L12.4772 30.7774Z" fill="black"/>
<path d="M33.1868 29.7888L33.1617 29.8047H33.1742L33.1868 29.7888Z" fill="black"/>
<path d="M33.2951 29.6449L33.1868 29.7889L33.3171 29.7098L33.2951 29.6449Z" fill="black"/>
<path d="M33.3423 29.7762L33.3878 29.7699L33.3501 29.6892L33.3171 29.7098L33.3423 29.7762Z" fill="black"/>
<path d="M34.27 8.33215L34.1774 8.95691L34.2041 9.12456L34.3595 9.24793L34.5431 8.72598L34.4427 8.43812L34.27 8.33215Z" fill="black"/>
<path d="M8.55261 35.5287L8.69076 35.5239L8.71745 35.4417L8.55261 35.5287Z" fill="black"/>
<path d="M32.7834 29.792L32.8603 29.811L32.8085 29.7683L32.7834 29.792Z" fill="black"/>
<path d="M15.146 16.9C14.3673 17.7129 13.8158 18.1479 13.4913 18.2048C12.6426 18.2776 12.1261 18.2776 11.9419 18.2048C11.4322 18.0203 11.1774 17.6143 11.1774 16.9869C11.1774 15.7754 11.1842 15.2619 11.1978 15.4464C11.1831 15.4042 11.3673 15.0405 11.7504 14.3551C12.0193 13.8848 12.2951 13.6286 12.5777 13.5864C13.0386 13.5327 13.5056 13.5802 13.9466 13.7256C14.4343 13.8743 14.7483 14.0989 14.8885 14.3994C14.9168 14.4136 14.9372 14.4626 14.9529 14.548C15.2432 14.7578 15.5925 14.8686 15.9497 14.8644C16.5442 14.8644 16.9262 14.5438 17.0957 13.9027L17.3077 11.7628C17.1627 11.4296 16.9926 11.1081 16.799 10.8011C16.2465 10.6018 15.8802 10.324 15.7001 9.96757C15.5871 9.76828 15.4877 9.32595 15.4018 8.64057C15.4018 8.59839 15.5897 8.33109 15.9654 7.83867C16.3412 7.34625 16.5568 7.05786 16.6122 6.9735C16.697 6.80268 16.8807 6.70936 17.1648 6.69513H17.7928C18.1564 6.63168 18.5233 6.58891 18.8917 6.56702C19.3176 6.56702 19.608 6.70251 19.7629 6.9735C20.081 7.58665 20.2429 8.26985 20.2339 8.96164C20.2339 9.56056 20.1491 9.94543 19.9796 10.1162C19.6962 10.4063 19.3351 10.607 18.9403 10.6936C18.9105 10.6508 18.876 10.6841 18.8336 10.79C18.7901 10.9024 18.7682 11.0221 18.7692 11.1427C18.7692 11.6172 18.9827 11.7991 19.4066 11.6995C19.6609 12.2541 19.6536 12.9885 19.3846 13.9027L20.5949 14.5227C20.8012 14.4532 21.0154 14.4102 21.2323 14.3946C21.3773 14.134 21.6051 13.93 21.8791 13.8157C22.1695 13.6876 22.4693 13.5595 22.7818 13.4314C22.8247 13.4029 23.2208 13.4672 23.9701 13.6244C24.5227 13.7235 24.8623 13.9159 24.989 14.2017C25.1809 14.6241 25.2754 15.0848 25.2653 15.5492C25.2653 16.0617 25.1606 16.4249 24.9513 16.639C24.4713 17.148 23.8729 17.5285 23.2103 17.7461C23.0339 17.7867 22.8489 17.7602 22.6907 17.6718C22.4985 17.5747 22.3358 17.4272 22.2198 17.2448C22.1289 17.0942 22.0138 16.9601 21.8791 16.8478C21.7095 16.5773 21.5196 16.4429 21.3061 16.4429C21.0926 16.4429 20.7975 16.601 20.4144 16.9174L20.0329 18.072C19.9063 20.9812 19.6939 24.1608 19.3956 27.6109C19.325 27.8814 19.2622 28.1582 19.2056 28.4444C19.0926 28.7861 18.9513 28.9569 18.7802 28.9569C18.483 28.9569 18.0376 28.5151 17.4442 27.6315L16.9984 24.4682L17.5384 23.089L16.8383 22.0625L16.5416 18.2776L16.1585 16.93C15.9466 16.745 15.7771 16.6516 15.6499 16.6516C15.5533 16.6548 15.4584 16.6786 15.3715 16.7214C15.2847 16.7642 15.2078 16.8251 15.146 16.9Z" fill="#D6AC70"/>
</g>
<defs>
<clipPath id="clip0_10_393">
<rect width="37" height="36" fill="white"/>
</clipPath>
</defs>
</svg>
