<?xml version="1.0" encoding="utf-8"?>
<!-- Generator: Adobe Illustrator 26.0.2, SVG Export Plug-In . SVG Version: 6.00 Build 0)  -->
<svg version="1.1" id="Layer_1" xmlns="http://www.w3.org/2000/svg" xmlns:xlink="http://www.w3.org/1999/xlink" x="0px" y="0px"
	 viewBox="0 0 314 68" style="enable-background:new 0 0 314 68;" xml:space="preserve">
<path d="M237.4,39.3h-5.1c-0.4,0-0.8-0.2-1-0.4c-0.3-0.3-0.4-0.6-0.5-1v-1.2c0-0.4,0.2-0.8,0.5-1c0.3-0.3,0.7-0.4,1-0.4h4.4
	c0.4,0,0.8-0.2,1.1-0.4c0.3-0.3,0.4-0.7,0.4-1c0-0.4-0.2-0.8-0.4-1c-0.3-0.3-0.7-0.4-1.1-0.4h-4.4c-0.4,0-0.8-0.2-1-0.4
	c-0.3-0.3-0.4-0.6-0.5-1v-1.2c0-0.4,0.2-0.8,0.5-1c0.3-0.3,0.7-0.4,1-0.4h5c0.4,0,0.8-0.2,1.1-0.4c0.3-0.3,0.4-0.7,0.4-1
	c0-0.4-0.2-0.8-0.4-1c-0.3-0.3-0.7-0.4-1.1-0.4h-6c-0.2,0-0.5,0.1-0.6,0.2c-0.2,0.1-0.3,0.3-0.4,0.6L227,40.8v0.3
	c0.1,0.3,0.2,0.7,0.5,0.9c0.3,0.2,0.6,0.3,1,0.3h8.8c0.4,0,0.8-0.2,1.1-0.4c0.3-0.3,0.4-0.7,0.4-1c0-0.4-0.2-0.8-0.4-1
	C238.1,39.5,237.7,39.3,237.4,39.3L237.4,39.3z"/>
<path d="M126.4,25.2h-2c-0.3,0-0.6,0.1-0.8,0.2c-0.2,0.2-0.4,0.4-0.6,0.6l-4.4,10.4c0,0,0,0.1,0,0.1c0,0,0,0-0.1,0
	c-0.1,0-0.1,0-0.1-0.1L114,26.1c-0.1-0.3-0.3-0.5-0.5-0.7c-0.4-0.3-0.9,0.1-1,0.6l-3.3,15.1c0,0.2,0,0.3,0.1,0.5
	c0.1,0.2,0.3,0.4,0.5,0.6c0.2,0.1,0.5,0.2,0.8,0.2h0.6c0.4,0,0.8-0.2,1-0.5c0.3-0.3,0.4-0.6,0.4-1v-9.7c0,0,0-0.1,0-0.1
	c0,0,0,0,0.1,0s0.1,0,0.1,0c0,0,0,0,0,0.1l4.1,10.2c0.1,0.3,0.3,0.5,0.6,0.7c0.3,0.2,0.5,0.2,0.8,0.2h0.4c0.3,0,0.6-0.1,0.8-0.2
	c0.2-0.2,0.4-0.4,0.6-0.6l4.1-10.1c0,0,0-0.1,0-0.1c0,0,0,0,0.1,0c0,0,0.1,0,0.1,0c0,0,0,0,0,0.1v9.6c0,0.4,0.2,0.8,0.5,1
	c0.3,0.3,0.7,0.4,1,0.4h0.6c0.4,0,0.8-0.2,1-0.4c0.3-0.3,0.4-0.6,0.5-1V26.7c-0.1-0.4-0.3-0.8-0.6-1
	C127.2,25.4,126.8,25.2,126.4,25.2z"/>
<path d="M172.2,33.2h-4.4c-0.4,0-0.7,0.1-1,0.4c-0.3,0.3-0.4,0.6-0.4,1c0,0.4,0.1,0.7,0.4,1c0.3,0.3,0.6,0.4,1,0.4h0.8
	c0.8,0,1.6,0.7,1.2,1.5c-0.6,1.3-1.8,2-3.7,2c-2.8,0-4.5-2.1-4.5-5.6c0-3.5,1.8-5.6,4.5-5.6c0.6,0,1.2,0.1,1.8,0.4
	c0.6,0.3,1,0.7,1.4,1.2c0.2,0.3,0.4,0.5,0.7,0.7c0.3,0.2,0.6,0.3,0.9,0.3h0.9c0.2,0,0.4,0,0.6-0.1c0.2-0.1,0.4-0.2,0.5-0.4
	c0.1-0.2,0.2-0.3,0.3-0.5c0-0.2,0-0.4,0-0.6c-0.6-1.3-1.6-2.4-2.9-3.1c-1.2-0.7-2.7-1.1-4.1-1c-4.6,0-8.1,3.3-8.1,8.8
	c0,5.5,3.3,8.8,8.2,8.8c4.4,0,7.5-2.8,7.5-7.2v-0.7c0-0.2,0-0.4-0.1-0.6c-0.1-0.2-0.2-0.3-0.3-0.5c-0.1-0.1-0.3-0.2-0.5-0.3
	C172.6,33.2,172.4,33.2,172.2,33.2z"/>
<path d="M146.2,26.2c-0.1-0.3-0.3-0.5-0.5-0.7c-0.3-0.2-0.6-0.3-0.9-0.3h-2.6c-0.3,0-0.6,0.1-0.9,0.3c-0.2,0.2-0.4,0.4-0.5,0.7
	l-5,14.2c-0.1,0.2-0.1,0.5-0.1,0.7s0.1,0.5,0.3,0.6c0.1,0.2,0.3,0.3,0.5,0.5c0.2,0.1,0.4,0.2,0.7,0.2h0.8c0.3,0,0.6-0.1,0.9-0.3
	c0.2-0.2,0.4-0.4,0.5-0.7l0.6-1.9c0.1-0.3,0.3-0.5,0.5-0.7c0.3-0.2,0.6-0.3,0.9-0.3h4.1c0.3,0,0.6,0.1,0.9,0.3
	c0.2,0.2,0.4,0.4,0.5,0.7l0.6,1.9c0.1,0.3,0.3,0.5,0.5,0.7c0.3,0.2,0.6,0.3,0.9,0.3h0.8c0.2,0,0.5-0.1,0.7-0.2
	c0.2-0.1,0.4-0.3,0.5-0.5c0.1-0.2,0.2-0.4,0.3-0.6s0-0.5-0.1-0.7L146.2,26.2z M143.6,35.6h-0.3c-0.2,0-0.5-0.1-0.7-0.2
	c-0.2-0.1-0.4-0.3-0.5-0.5c-0.1-0.2-0.2-0.4-0.3-0.6c0-0.2,0-0.5,0.1-0.7l1.5-4.5c0,0,0-0.1,0-0.1c0,0,0,0,0.1,0c0,0,0.1,0,0.1,0
	c0,0,0,0,0,0.1l1.5,4.5c0.1,0.2,0.1,0.5,0,0.7c0,0.2-0.1,0.4-0.3,0.6c-0.1,0.2-0.3,0.3-0.5,0.5C144.1,35.5,143.9,35.5,143.6,35.6z"
	/>
<path d="M183.8,25.2h-0.7c-0.4,0-0.8,0.2-1,0.4c-0.3,0.3-0.4,0.6-0.5,1v14.2c0,0.4,0.2,0.8,0.5,1c0.3,0.3,0.7,0.4,1,0.4h0.7
	c0.4,0,0.8-0.2,1-0.4c0.3-0.3,0.4-0.6,0.5-1V26.7c0-0.4-0.2-0.7-0.5-1S184.2,25.2,183.8,25.2z"/>
<path d="M201.3,28.2c0.7,0,1.3,0.1,1.9,0.4c0.6,0.3,1.1,0.8,1.5,1.3c0.1,0.3,0.4,0.6,0.7,0.9c0.3,0.2,0.7,0.3,1,0.3h0.7
	c0.2,0,0.4,0,0.6-0.1c0.2-0.1,0.4-0.2,0.5-0.4c0.1-0.2,0.2-0.3,0.3-0.5c0-0.2,0-0.4,0-0.6c-1-3-3.7-4.6-7.2-4.6
	c-4.6,0-8.1,3.2-8.1,8.8s3.4,8.8,8.1,8.8c3.7,0,6.2-2,7.1-4.4c0.1-0.2,0.1-0.4,0-0.6c0-0.2-0.1-0.4-0.3-0.5
	c-0.1-0.2-0.3-0.3-0.5-0.4c-0.2-0.1-0.4-0.1-0.6-0.1h-0.8c-0.4,0-0.7,0.2-1,0.4c-0.3,0.2-0.5,0.5-0.7,0.8c-0.3,0.6-0.8,1-1.4,1.3
	c-0.6,0.3-1.2,0.5-1.9,0.4c-2.6,0-4.4-2-4.4-5.6C196.8,30.1,198.6,28.2,201.3,28.2z"/>
<path d="M253.1,25.2h-4.7c-0.4,0-0.8,0.2-1,0.4c-0.3,0.3-0.4,0.6-0.5,1v14.2c0,0.4,0.2,0.8,0.5,1c0.3,0.3,0.7,0.4,1,0.4h4.7
	c5.3,0,8.5-3.3,8.5-8.6C261.6,28.5,258.3,25.2,253.1,25.2z M252.9,39.2h-0.8c-0.4,0-0.8-0.2-1-0.4c-0.3-0.3-0.4-0.6-0.5-1v-8
	c0-0.4,0.2-0.8,0.5-1c0.3-0.3,0.7-0.4,1-0.4h0.8c3.3,0,5,1.7,5,5.4S256.2,39.2,252.9,39.2z"/>
<path d="M279.6,39.3h-5.1c-0.4,0-0.8-0.2-1-0.4c-0.3-0.3-0.4-0.6-0.5-1v-1.2c0-0.4,0.2-0.8,0.5-1c0.3-0.3,0.7-0.4,1-0.4h4.4
	c0.4,0,0.8-0.2,1.1-0.4c0.3-0.3,0.4-0.7,0.4-1c0-0.4-0.2-0.8-0.4-1c-0.3-0.3-0.7-0.4-1.1-0.4h-4.4c-0.4,0-0.8-0.2-1-0.4
	c-0.3-0.3-0.4-0.6-0.5-1v-1.2c0-0.4,0.2-0.8,0.5-1c0.3-0.3,0.7-0.4,1-0.4h5c0.4,0,0.8-0.2,1.1-0.4c0.3-0.3,0.4-0.7,0.4-1
	c0-0.4-0.2-0.8-0.4-1c-0.3-0.3-0.7-0.4-1.1-0.4h-8.7c-0.4,0-0.8,0.2-1,0.4c-0.3,0.3-0.4,0.6-0.5,1v14.2c0,0.4,0.2,0.8,0.5,1
	c0.3,0.3,0.7,0.4,1,0.4h8.8c0.4,0,0.8-0.2,1-0.4c0.3-0.3,0.4-0.6,0.5-1c0-0.2,0-0.4-0.1-0.6c-0.1-0.2-0.2-0.3-0.3-0.5
	c-0.1-0.1-0.3-0.2-0.5-0.3C280,39.3,279.8,39.3,279.6,39.3z"/>
<path d="M302.2,25.2h-0.7c-0.4,0-0.8,0.2-1,0.4c-0.3,0.3-0.4,0.6-0.5,1v9.2c0,0.1,0,0.1-0.1,0.1h-0.1l-7-10.1
	c-0.1-0.2-0.3-0.3-0.5-0.4c-0.2-0.1-0.4-0.2-0.7-0.1h-0.9c-0.4,0-0.8,0.2-1,0.4c-0.3,0.3-0.4,0.6-0.5,1V41c0,0.4,0.2,0.8,0.5,1
	c0.3,0.3,0.7,0.4,1,0.4h0.7c0.4,0,0.8-0.2,1-0.4c0.3-0.3,0.4-0.6,0.5-1v-9.3c0,0,0-0.1,0-0.1c0,0,0,0,0.1,0h0.1l7.1,10.1
	c0.1,0.2,0.3,0.3,0.5,0.4c0.2,0.1,0.4,0.2,0.7,0.1h0.9c0.4,0,0.8-0.2,1-0.4c0.3-0.3,0.4-0.6,0.5-1V26.6c-0.1-0.4-0.3-0.7-0.5-1
	C302.9,25.4,302.6,25.2,302.2,25.2z"/>
<path d="M66,22.1l4.6,5.4c0.5,0.6,1,1.1,1.2,1.4c1.4,1.4,2.2,3.2,2.2,5.2c-0.1,2.3-1.6,3.8-3,5.5l-3.2,3.8l-1.7,2
	c-0.1,0.1-0.1,0.2-0.1,0.2c0,0.1,0,0.2,0,0.3c0,0.1,0.1,0.2,0.2,0.2c0.1,0,0.2,0.1,0.3,0.1h16.9c2.6,0,5.8,2.2,5.6,5.5
	c0,1.5-0.6,2.9-1.7,4c-1.1,1.1-2.5,1.7-4,1.7H56.8c-1.7,0-6.4,0.2-7.7-3.8c-0.3-0.8-0.3-1.7-0.1-2.6c0.4-1.3,1-2.5,1.8-3.5
	c1.3-2,2.8-3.9,4.2-5.9c1.8-2.5,3.7-4.9,5.6-7.5c0.1-0.1,0.1-0.2,0.1-0.3c0-0.1,0-0.2-0.1-0.3l-6.7-7.9c0-0.1-0.1-0.1-0.2-0.1
	c-0.1,0-0.1,0-0.2,0s-0.1,0-0.2,0c-0.1,0-0.1,0.1-0.2,0.1c-1.8,2.4-9.7,13-11.4,15.1c-1.7,2.1-5.8,2.3-8.1,0L23,30.3
	c-0.1-0.1-0.2-0.1-0.2-0.1c-0.1,0-0.2,0-0.3,0c-0.1,0-0.2,0.1-0.2,0.2c-0.1,0.1-0.1,0.2-0.1,0.3v20c0,1.4-0.4,2.8-1.2,4
	c-0.8,1.2-2,2.1-3.3,2.5c-0.9,0.3-1.8,0.4-2.7,0.3c-0.9-0.1-1.8-0.5-2.5-1c-0.7-0.5-1.4-1.2-1.8-2c-0.4-0.8-0.6-1.7-0.6-2.6v-36
	c0.1-1.3,0.5-2.5,1.4-3.6s1.9-1.8,3.2-2.1c1.1-0.3,2.2-0.3,3.3,0c1.1,0.3,2.1,0.9,2.9,1.6l16.2,15.9c0,0,0.1,0.1,0.2,0.1
	c0.1,0,0.1,0,0.2,0c0.1,0,0.1,0,0.2-0.1c0.1,0,0.1-0.1,0.2-0.1l11.5-15.7c0.5-0.6,1.2-1.1,1.9-1.5c0.8-0.4,1.6-0.5,2.4-0.6h29.9
	c0.8,0,1.6,0.2,2.4,0.5c0.7,0.3,1.4,0.8,1.9,1.4c0.5,0.6,0.9,1.3,1.2,2.1c0.2,0.8,0.3,1.6,0.2,2.4c-0.2,1.4-0.9,2.6-2,3.6
	c-1.1,0.9-2.5,1.4-3.9,1.4H66.4c-0.1,0-0.2,0-0.2,0.1c-0.1,0-0.1,0.1-0.2,0.2c0,0.1-0.1,0.2-0.1,0.2C65.9,21.9,66,22,66,22.1z"/>
</svg>
