<svg width="25" height="15" viewBox="0 0 25 15" fill="none" xmlns="http://www.w3.org/2000/svg">
  <path
    d="M6.86548 14.2875C10.6572 14.2875 13.731 11.2117 13.731 7.41744C13.731 3.6232 10.6572 0.547363 6.86548 0.547363C3.07379 0.547363 0 3.6232 0 7.41744C0 11.2117 3.07379 14.2875 6.86548 14.2875Z"
    fill="#D7AE6E" />
  <path
    d="M17.7547 13.9554C19.6469 13.9554 21.1808 11.0283 21.1808 7.41751C21.1808 3.80674 19.6469 0.879639 17.7547 0.879639C15.8625 0.879639 14.3286 3.80674 14.3286 7.41751C14.3286 11.0283 15.8625 13.9554 17.7547 13.9554Z"
    fill="#D7AE6E" />
  <path
    d="M22.9868 13.1713C23.6982 13.1713 24.2749 10.5952 24.2749 7.41743C24.2749 4.23966 23.6982 1.66357 22.9868 1.66357C22.2754 1.66357 21.6987 4.23966 21.6987 7.41743C21.6987 10.5952 22.2754 13.1713 22.9868 13.1713Z"
    fill="#D7AE6E" />
</svg>