<svg width="417" height="120" viewBox="0 0 417 120" fill="none" xmlns="http://www.w3.org/2000/svg">
<g clip-path="url(#clip0_1_296)">
<path d="M16.7382 9.72952C16.8896 11.6751 15.2151 13.7676 11.7147 16.0069C11.6761 16.9167 11.5271 17.8184 11.2707 18.692C10.7489 19.1797 10.3314 19.7691 10.0438 20.4241C9.75618 21.0791 9.60464 21.786 9.59807 22.5018C9.59807 25.1904 11.2707 27.8427 14.6163 30.4587C16.2547 31.6544 17.074 33.555 17.074 36.1606C17.074 38.7006 15.8467 40.4924 13.3926 41.5361C11.3936 41.2766 9.37514 41.2019 7.36248 41.3131C6.69474 40.5666 5.35568 39.1101 3.34557 36.9433C3.46948 36.0326 3.35383 35.1051 3.01003 34.2531C2.22083 33.7316 1.5599 33.037 1.07696 32.2217C0.594014 31.4064 0.301713 30.4916 0.222097 29.5464C0.222097 27.9032 0.144562 26.2962 0 24.7308C0 24.5805 0.180743 23.6112 0.557637 21.8177C1.22538 17.3252 3.04781 14.412 6.02511 13.0781C6.69629 11.9584 8.10919 10.6142 10.2639 9.04525C11.3791 8.61674 13.5372 8.84486 16.7382 9.72952ZM140.84 116.957L140.169 118.974C135.257 119.647 132.392 119.984 131.572 119.984C128.375 119.984 125.251 118.939 122.201 116.848L119.858 116.511C117.995 115.91 115.392 114.901 112.046 113.484C104.753 108.629 98.0564 101.795 91.9572 92.9831C89.2698 91.4939 86.6949 89.808 84.2539 87.9394C84.1059 86.6712 83.2454 84.9157 81.6725 82.6729C80.2674 82.2722 78.8881 81.7858 77.5421 81.2163C77.2799 79.8919 76.753 78.6347 75.9932 77.5205C73.9074 75.7926 72.6804 74.3723 72.3121 73.2596C72.0849 71.6164 71.8268 69.9006 71.5273 68.1071C70.7116 67.2121 69.6325 65.9041 68.2902 64.1831C67.8462 62.7663 67.0648 60.6375 65.9462 57.7969C64.9824 56.8984 63.9413 55.3295 62.8227 53.0902C62.3673 50.8331 61.2168 48.7769 59.5338 47.2121C57.7853 45.5291 55.9802 44.6876 54.1181 44.6876C51.5159 44.6876 49.6555 46.2203 48.5369 49.2855C47.3204 50.5191 46.2781 51.9144 45.4391 53.4324V61.047C45.4391 62.8405 44.453 65.8107 42.4808 69.9576C40.5085 74.1044 39.7461 77.6708 40.1935 80.6566C41.0161 81.479 42.8765 82.343 45.7747 83.2484C46.069 83.3261 46.8537 83.212 48.1187 82.9113C49.0119 82.761 49.5693 82.9891 49.7913 83.5852C50.3686 83.3915 50.9697 83.2782 51.5777 83.2484C52.4709 83.2484 52.9151 83.6215 52.9151 84.368C52.9151 85.2664 52.4142 86.3118 51.4126 87.5041C50.4109 88.6963 49.4248 89.2941 48.4542 89.2976C48.0905 89.3018 47.7358 89.1832 47.4473 88.9607C45.5112 89.2613 43.9522 89.0747 42.7596 88.4008C42.3156 88.5494 40.6977 89.0678 37.9062 89.9559C35.1148 90.844 33.0876 91.2916 31.8244 91.2985C30.4098 91.2985 29.4805 90.8509 29.0365 89.9559H21.669C15.1946 89.9559 11.959 88.8362 11.9625 86.5969C12.0321 85.5537 12.3781 84.5479 12.9643 83.6837C16.6093 82.4846 20.7758 80.99 25.4638 79.1999C26.2795 78.6021 26.837 77.593 27.1364 76.1727C27.5082 74.1545 27.732 73.0349 27.8078 72.8137C29.7141 70.2302 31.4655 67.5351 33.0531 64.7429C33.2769 62.9562 33.5557 61.0141 33.8896 58.9165C34.2234 56.8189 35.5073 55.2138 37.7411 54.1011C38.9286 49.3944 41.1969 42.5589 44.546 33.5948C44.1019 30.8302 43.9538 28.8881 44.1018 27.7684C44.322 26.5002 45.1395 24.8207 46.5542 22.73C46.4819 21.6034 47.4491 19.3572 49.4558 15.9913C50.6467 13.9766 50.5365 11.3986 49.1253 8.25734C48.6744 7.22062 48.1581 6.70226 47.5764 6.70226C46.9957 6.80992 46.4438 7.03765 45.9554 7.37097C45.4062 7.74181 44.7754 7.97309 44.1174 8.04486C43.4743 7.97736 42.8593 7.74531 42.331 7.37097C41.6626 6.94721 40.8909 6.71588 40.1005 6.70226C38.5344 6.70226 35.3713 7.31741 30.6111 8.54765C25.8508 9.77789 22.581 10.3948 20.8015 10.3982C19.3868 10.3982 18.3492 10.139 17.678 9.6155C17.7503 7.88764 18.4575 6.7472 19.7999 6.19428C21.1856 5.61748 22.6005 5.11402 24.0387 4.68591C24.7821 4.16409 25.9353 3.45388 27.4979 2.5554C28.7646 2.4068 30.625 2.22028 33.0791 1.99565C34.1661 1.36516 35.3283 0.875694 36.5381 0.539037C43.157 0.390441 47.081 0.483766 48.3098 0.818971C49.5385 1.15418 51.3798 1.54641 53.8339 1.99565H73.3654C73.9574 1.99565 74.7576 2.50015 75.7661 3.50922C76.7677 4.51484 77.2736 5.09545 77.2736 5.24577C78.4611 5.24577 80.134 5.61895 82.2921 6.36538C83.0356 6.95977 85.0819 8.65829 88.4309 11.4609C91.7799 14.2635 93.4544 15.7771 93.4544 16.0017C93.3605 17.1187 93.3225 18.2398 93.3407 19.3607C93.4117 20.2554 93.5849 21.1389 93.857 21.9938C94.1437 22.9214 94.3171 23.8805 94.3733 24.85C94.3994 25.4139 94.3029 25.9766 94.0907 26.4994C93.8785 27.0221 93.5558 27.4923 93.1446 27.8773C91.3582 28.323 90.3256 29.892 90.0468 32.584C89.5959 35.7183 88.5169 37.809 86.8097 38.8561C86.8097 39.8306 86.326 41.1749 85.3589 42.8889C84.9148 43.117 84.2436 42.8889 83.3504 42.2773C82.4572 41.6656 81.8017 41.396 81.3422 41.5463C78.8847 42.7454 75.7593 44.3144 71.9662 46.253C72.4894 50.0543 74.4237 53.9766 77.7692 58.0198C81.7137 62.723 83.7223 65.2249 83.7946 65.5256C84.1944 67.4699 84.7557 69.3772 85.4726 71.2275C86.3568 71.5866 87.2189 71.9986 88.054 72.4613C88.3437 72.6663 88.5838 72.9337 88.7571 73.244C88.9304 73.5544 89.0325 73.8997 89.0556 74.2548C89.355 75.5991 89.5048 76.3455 89.5048 76.4941C90.5035 78.1433 91.6217 79.7164 92.8504 81.2007C94.4165 83.0668 96.0169 84.2626 97.6518 84.7879C98.7336 85.0848 99.7806 85.4965 100.775 86.0163C101.743 86.8422 102.877 88.3178 104.178 90.4431C105.479 92.5684 106.465 93.8194 107.136 94.196C108.098 94.68 109.108 95.0572 110.151 95.3209C112.059 95.7447 113.803 96.7173 115.17 98.12C116.956 100.066 117.999 101.149 118.298 101.37C119.759 101.762 121.126 102.448 122.315 103.387C122.911 106.745 124.659 108.646 127.561 109.088C127.783 109.835 128.469 110.529 129.626 111.162C130.384 111.515 131.082 111.987 131.691 112.561C132.145 113.176 132.734 113.677 133.411 114.027C134.089 114.376 134.838 114.565 135.599 114.578H139.73L140.84 116.957ZM33.1409 89.9559C34.034 90.2514 34.4833 89.9559 34.4833 89.0591C34.5106 88.5182 34.3462 87.9849 34.0192 87.554C33.6921 87.1232 33.2237 86.8227 32.6969 86.7058C32.2985 86.9199 31.9704 87.2454 31.7523 87.6428C31.5342 88.0402 31.4356 88.4926 31.4682 88.9451C31.4682 90.0751 32.0257 90.4172 33.1409 89.9715V89.9559ZM81.9152 30.2358C81.7603 26.203 81.6485 22.1684 81.5797 18.1321C80.757 13.5809 78.0035 10.5192 73.319 8.9468C73.097 8.9468 72.4051 8.60989 71.2538 7.93602C70.1025 7.26216 69.2247 6.9667 68.631 7.03927C65.9497 7.93776 63.3837 10.2548 60.933 13.9904C60.2618 14.8889 59.7593 16.4198 59.4254 18.5831C59.0899 20.7499 58.9092 21.942 58.8111 22.1701C57.7526 23.4458 56.7831 24.7933 55.9095 26.203C56.0903 27.6521 56.1646 29.1126 56.1315 30.5727C54.1972 32.1381 53.2299 34.0388 53.2299 36.2746C53.2299 37.3943 53.6774 39.2949 54.5723 41.9766C55.0163 41.8988 56.431 42.3499 58.8111 43.3192H63.1635C63.6739 43.7128 64.3071 43.9112 64.9499 43.8789C66.779 43.8501 68.5756 43.3903 70.1953 42.5365C72.0539 40.5943 74.7698 38.5018 78.3425 36.2591C79.4577 36.0362 80.3096 35.2224 80.924 33.7969C81.5711 31.8098 81.8945 30.6281 81.8945 30.2514L81.9152 30.2358Z" fill="black"/>
<path d="M152.591 0.917484C150.679 0.00373192 148.515 -0.23379 146.452 0.243592C145.999 0.23963 145.557 0.377986 145.187 0.639195C144.816 0.900404 144.537 1.2714 144.387 1.70021C144.068 2.53287 143.862 3.40449 143.773 4.292C143.177 5.71231 142.661 6.83368 142.224 7.65615C141.78 10.7742 141.52 13.9156 141.444 17.0643C140.094 18.8668 138.518 20.487 136.756 21.8851C134.822 24.5702 133.407 26.3257 132.512 27.1517C130.558 29.8016 128.182 32.1099 125.48 33.9836C117.598 41.3823 110.866 47.9568 105.283 53.7072C104.344 54.4799 103.356 55.1897 102.324 55.8324C100.948 56.7308 100.037 57.5948 99.5931 58.4241C98.4846 60.2875 96.9547 61.8627 95.1272 63.022C94.1882 63.6331 93.3053 64.327 92.489 65.0955L92.8402 65.5464C93.9572 66.8517 94.9769 68.2377 95.8913 69.6933C97.1046 71.2483 95.7416 74.4674 98.3334 75.7063C98.3592 75.6804 99.9289 74.3792 99.9289 74.3637C102.682 70.7766 104.374 68.368 105.004 67.1378C105.634 65.9076 106.062 65.0108 106.29 64.4475C106.513 63.8877 107.871 62.6557 110.363 60.7516C112.852 58.844 114.437 57.8902 115.103 57.8902H129.502C131.655 58.0405 132.739 59.0099 132.739 60.8035C132.763 61.5243 132.624 62.2411 132.333 62.9007C132.043 63.5603 131.608 64.1456 131.061 64.6133C129.496 65.9043 127.857 67.1021 126.151 68.2004C125.707 69.7555 125.258 71.3572 124.814 72.9641C124.203 74.8884 123.257 76.6889 122.021 78.2825C121.204 79.36 120.007 80.0816 118.676 80.2989C116.961 80.2989 115.273 80.3559 113.595 80.47C111.783 80.6442 110.078 81.4109 108.742 82.6522C108.443 84.0725 109.191 85.1922 110.972 86.0164C112.454 86.7772 114.113 87.1246 115.774 87.0221C126.489 86.6489 134.04 86.5745 138.429 86.7991C140.664 86.9184 142.901 86.5944 145.012 85.8454C147.393 85.0609 148.696 84.1469 148.92 83.1033C145.654 81.7151 142.297 80.5547 138.873 79.6303C137.086 78.8078 136.045 77.6121 135.749 76.0432C136.07 74.4282 136.556 72.8509 137.2 71.3365C137.128 67.6769 137.871 64.7637 139.43 62.597C141.96 59.1654 143.411 56.8121 143.783 55.537C143.783 55.3158 143.673 53.7486 143.452 50.8354C143.303 48.762 143.674 47.3987 144.568 46.7974C146.726 45.4531 148.139 43.3244 148.806 40.4112C148.829 39.4729 148.755 38.5349 148.584 37.6121C149.851 32.9849 151.414 29.1836 153.272 26.2082C154.387 24.1901 154.945 21.6501 154.945 18.5884V8.73956C155.609 4.85533 154.825 2.24794 152.591 0.917484ZM140.091 37.3322C138.532 39.9447 137.751 41.289 137.747 41.365C136.715 47.6372 134.478 50.7749 131.036 50.7784H126.461C124.895 50.0872 124.114 49.3027 124.117 48.425C124.117 47.4505 125.15 46.0354 127.298 44.1641C129.445 42.2928 130.592 40.9918 130.814 40.2454C132.534 33.8212 135.102 30.6091 138.517 30.6091C139.344 30.6117 140.147 30.8866 140.804 31.3918C141.122 31.5986 141.385 31.8807 141.57 32.2133C141.754 32.5458 141.855 32.9187 141.862 33.2993C141.878 34.1702 141.269 35.5179 140.091 37.3114V37.3322Z" fill="black"/>
<path d="M212.073 30.2514C211.302 30.217 210.56 29.9435 209.95 29.4687C207.944 28.2004 207.083 26.6315 207.369 24.762C207.479 24.2751 207.689 23.8162 207.984 23.4142C208.332 22.9186 208.544 22.3392 208.598 21.7347C208.598 20.9157 208.04 20.2436 206.925 19.7183C205.695 19.9276 204.434 19.8514 203.239 19.4955C201.831 18.6211 200.211 18.1545 198.556 18.1477C195.727 18.1477 193.233 19.3244 191.075 21.6778C188.917 24.0311 187.95 26.4034 188.173 28.7948C185.795 33.5015 184.606 36.5633 184.606 37.9801V43.5836C184.606 45.6778 185.945 46.7231 188.623 46.7197C191.968 46.7197 194.422 46.0475 195.985 44.7032C196.806 44.0345 197.993 43.6976 199.558 43.6976C201.864 43.6976 203.167 43.6406 203.466 43.5265C203.76 43.4177 204.467 42.5365 205.583 40.8933C206.254 39.8566 206.961 39.4004 207.705 39.5507C208.82 40.4458 209.044 41.6777 208.376 43.2466C207.481 45.5654 207.667 48.5909 208.933 52.323C207.513 52.9992 206.37 54.1474 205.696 55.5732C205.025 56.9935 204.359 58.3723 203.688 59.72C203.479 59.8201 203.246 59.8578 203.017 59.8289C202.573 59.8289 201.53 59.124 199.893 57.7037C198.77 57.5157 197.68 57.1665 196.656 56.667C196.14 55.7702 194.87 54.692 192.861 53.4168C191.098 53.0752 189.303 52.9257 187.507 52.971C185.272 52.971 183.749 53.1214 182.928 53.4168C181.379 54.0181 180.584 55.2103 180.584 57.0038C180.611 57.3499 180.687 57.6903 180.811 58.0146V59.1343C180.811 60.4769 180.362 61.3011 179.469 61.5965C178.37 61.9537 177.253 62.2531 176.123 62.4933C175.717 62.7157 175.397 63.0685 175.214 63.4952C175.032 63.9219 174.997 64.3979 175.116 64.8467C176.09 65.9676 176.916 67.2097 177.574 68.5425C177.574 70.4881 178.131 73.1404 179.247 76.4994C180.138 77.4739 182.816 78.4829 187.28 79.5265C188.103 79.5991 188.977 80.5891 189.903 82.4967C190.829 84.4042 191.293 85.7676 191.297 86.5866C191.336 86.9887 191.217 87.3903 190.966 87.7062C182.406 88.152 176.491 87.4799 173.221 85.6898C172.533 85.3892 171.361 85.4635 169.705 85.9127C168.378 86.2063 167.113 86.7327 165.967 87.4678C165.158 88.0639 164.178 88.3788 163.174 88.3645C161.231 88.3864 159.34 87.7346 157.82 86.5191C156.254 85.2854 155.883 83.9585 156.705 82.5382C156.998 82.0924 157.648 81.7762 158.657 81.5895C159.391 81.5044 160.097 81.2547 160.722 80.8587C164.959 77.1265 166.852 74.8803 166.401 74.12V68.0708C166.433 66.4128 167.023 64.8143 168.074 63.5352C169.194 62.0786 169.752 60.6738 169.752 59.3313C169.728 58.2988 169.54 57.2769 169.194 56.3041C169.786 54.8113 170.754 52.4958 172.096 49.358C172.608 48.2679 173.203 47.2193 173.877 46.222C174.104 45.9991 174.213 44.5788 174.213 41.9662V36.9226C174.213 36.8501 174.383 36.2488 174.729 35.1291C175.075 34.0095 175.302 33.263 175.452 32.8898C175.478 31.6137 175.59 30.3409 175.787 29.0799C177.35 25.7175 178.131 23.8169 178.131 23.378C178.12 22.669 177.928 21.9747 177.574 21.3615C176.885 20.0172 175.657 19.0462 173.888 18.4484L169.205 17.7797C166.675 17.2579 165.298 16.3231 165.074 14.9754C164.625 12.959 165.745 11.8392 168.42 11.6163H213.286C215.589 11.6163 216.853 13.2959 217.08 16.6549C217.08 16.883 217.468 17.5516 218.252 18.6712C219.037 19.7909 219.424 20.6928 219.424 21.3615C219.424 22.4812 218.564 24.2367 216.843 26.6281C215.122 29.0195 213.532 30.2272 212.073 30.2514Z" fill="black"/>
<path d="M292.692 9.7295C292.836 10.1787 292.408 10.9632 291.406 12.0829C290.663 12.9616 289.821 13.7513 288.897 14.4362C288.004 14.4362 286.476 14.8871 284.317 15.7787C283.801 16.1571 283.538 16.9036 283.538 18.0232C283.439 19.2784 283.078 20.4986 282.479 21.6051C281.922 22.5796 281.307 23.0617 280.636 23.0617C279.745 23.0617 278.964 22.2789 278.292 20.7135C277.621 19.148 277.398 17.8401 277.621 16.7896C277.331 16.3249 276.939 15.9323 276.476 15.6414C276.013 15.3505 275.49 15.1688 274.947 15.11H268.917C265.272 14.1424 263.151 13.6932 262.556 13.7623C261.801 14.1266 261.017 14.4265 260.212 14.6591C259.354 15.1043 258.377 15.2623 257.424 15.11C254.594 14.8094 252.586 15.7805 251.399 18.0232C250.948 18.9908 250.431 21.1559 249.85 24.5183C249.126 25.5658 248.526 26.6949 248.063 27.8824C248.063 30.3498 247.655 34.0094 246.84 38.8612C246.684 39.2673 246.633 39.7062 246.691 40.1374C246.748 40.5686 246.913 40.9782 247.17 41.3286C248.657 42.8941 250.741 43.6785 253.422 43.682C255.195 43.7012 256.949 43.3185 258.554 42.5624C259.148 41.9611 260.041 41.1058 261.234 39.9706L264.58 38.2911C265.646 37.2387 266.847 36.3338 268.152 35.6007C269.045 35.5282 269.603 35.6008 269.825 35.8289C270.502 36.8156 270.854 37.9901 270.832 39.1879C270.832 41.206 269.641 44.2695 267.259 48.3783C267.095 49.2986 266.833 50.1986 266.48 51.0634C265.588 52.4111 264.397 54.8388 262.907 58.3464C262.835 58.647 262.535 58.9062 262.014 59.1343C261.675 59.3261 261.284 59.4041 260.898 59.3571C260.597 59.181 260.34 58.9381 260.147 58.6471C259.954 58.356 259.829 58.0244 259.783 57.6777C258.517 52.5183 254.872 49.9403 248.848 49.9438C247.565 49.9326 246.287 50.1072 245.053 50.4622C243.931 50.8077 242.926 52.3628 242.038 55.1274L239.023 56.8069C237.686 57.631 237.015 58.4863 237.015 59.3987C237.015 59.9239 237.405 60.8397 238.187 62.146C238.972 63.4522 239.359 64.4423 239.359 65.111C239.359 65.4116 238.801 66.8319 237.686 69.3719C236.571 71.9118 236.013 74.0025 236.013 75.6439C236.013 78.5571 237.612 80.4577 240.809 81.3459C241.842 81.7191 243.405 82.1666 245.497 82.6885C246.984 83.9567 247.728 85.301 247.728 86.7213C247.728 87.2751 247.608 87.8223 247.377 88.3252C247.147 88.8281 246.81 89.2747 246.391 89.6344C246.216 89.7141 246.025 89.7532 245.833 89.7486C245.185 89.6319 244.567 89.3907 244.01 89.0384C243.396 88.6883 242.764 88.3716 242.116 88.0897C241.394 88.0675 240.675 88.1801 239.994 88.4215C239.054 88.753 238.081 88.979 237.092 89.0954C234.705 89.276 232.305 89.0302 230.003 88.3697C228.506 87.8383 226.942 87.5174 225.357 87.4159C223.722 87.4159 220.56 87.8271 215.872 88.6496C214.324 88.8725 212.527 88.4578 210.513 87.4159C208.135 86.2963 206.946 84.914 206.946 83.2691C206.946 82.8233 207.462 82.3723 208.453 81.9265C209.005 81.6417 209.584 81.4158 210.183 81.2526C212.486 79.3105 215.311 78.4137 218.66 78.5623C220.008 78.5321 221.29 77.974 222.233 77.0073C223.194 76.2173 223.83 75.0985 224.019 73.866C224.391 72.3731 224.353 71.1792 223.906 70.2842C222.791 68.2107 222.233 67.174 222.233 67.2569C222.242 66.9996 222.319 66.7493 222.455 66.5313C222.603 66.2686 223.57 65.1282 225.357 63.1101C226.844 61.3943 227.592 60.088 227.592 59.1912C227.555 58.6966 227.462 58.208 227.314 57.7347C227.145 57.1884 227.051 56.6217 227.035 56.0501C227.038 55.2208 227.268 54.4082 227.701 53.7019C229.267 51.2345 229.714 49.2544 229.043 47.7615C228.547 46.5517 228.282 45.2595 228.258 43.9515C228.258 41.4842 229.523 39.6163 232.053 38.3481C232.876 38.0509 233.392 37.3425 233.602 36.2229C233.674 35.3969 233.488 33.4963 233.044 30.5209C233.044 28.3542 233.938 26.2634 235.724 24.2487C236.499 23.3857 236.933 22.269 236.947 21.1074C236.947 18.2703 234.71 15.5057 230.236 12.8137C229.792 12.5908 229.492 11.8029 229.342 10.4603C229.342 9.1178 229.57 8.25732 230.014 7.86855C230.458 7.47978 231.356 7.1947 232.693 6.9718H243.628C244.643 7.04533 245.632 7.33144 246.53 7.8116C247.394 8.2791 248.345 8.56476 249.323 8.65128C250.063 8.63268 250.787 8.44107 251.44 8.09154C253.378 7.40039 256.057 6.95283 259.479 6.74894C261.709 6.89754 266.356 6.9718 273.419 6.9718C274.979 6.97196 276.507 6.52413 277.823 5.68109C279.199 4.82753 280.335 4.39903 281.23 4.39558C288.427 4.30573 292.248 6.08372 292.692 9.7295ZM230.737 77.6345C231.124 77.4375 231.446 77.1319 231.665 76.7547C231.883 76.3775 231.987 75.9448 231.965 75.5091C231.965 74.1614 231.33 73.5291 230.066 73.6016C229.322 73.7537 228.95 74.3135 228.95 75.2811C228.961 76.85 229.561 77.6345 230.752 77.6345H230.737Z" fill="black"/>
<path d="M347.832 70.1392C348.653 70.813 349.061 71.4816 349.061 72.1555C349.061 72.6082 348.558 73.448 347.553 74.6748C346.66 75.7178 345.96 76.9135 345.488 78.2048C344.524 78.5055 343.483 79.4402 342.365 81.0091C341.246 82.578 340.688 83.9966 340.692 85.2648C336.747 87.7322 333.286 88.9642 330.309 88.9608H322.725C322.649 88.9608 321.775 88.6999 320.102 88.178C318.679 87.6988 317.193 87.435 315.693 87.3953C315.008 87.3833 314.328 87.4974 313.685 87.7322C311.678 88.3992 307.995 88.7343 302.636 88.7378H277.415C276.492 88.5326 275.615 88.1526 274.834 87.6182C273.646 84.705 273.162 83.1361 273.383 82.9114C274.251 81.9503 275.446 81.351 276.733 81.232C280.378 80.7862 283.168 78.54 285.102 74.4933C286.554 71.2543 287.279 67.7345 287.225 64.1832C288.139 62.5301 288.923 60.8074 289.569 59.0308C289.589 58.0564 289.663 57.0838 289.79 56.1175C289.863 55.8964 290.978 54.5521 293.136 52.0847V48.0882C293.212 47.5629 293.728 46.8147 294.685 45.8436C295.313 45.2415 295.91 44.6065 296.471 43.9413C296.968 41.5387 297.755 39.2061 298.815 36.9953C300.851 34.8168 302.682 32.4532 304.283 29.9352C305.731 27.0254 306.201 23.7223 305.62 20.5219C305.548 19.7755 304.842 19.2346 303.503 18.8994C302.161 18.5624 300.922 18.2826 299.817 18.0597C299.084 17.7749 298.461 17.262 298.039 16.596C297.617 15.93 297.419 15.1459 297.473 14.3585C297.473 12.8657 297.92 11.746 298.815 10.9996C299.779 10.5538 301.602 10.3673 304.283 10.4398C306.661 10.5884 308.429 10.2429 309.585 9.40313C310.742 8.56339 314.666 8.02077 321.357 7.77541C324.854 7.70284 327.383 9.23378 328.946 12.3681C329.168 12.8865 328.832 14.0165 327.913 15.7323C327.542 16.4061 327.098 16.7379 326.576 16.7379C325.795 16.5847 325.03 16.3609 324.289 16.0691C322.988 15.6182 322.002 15.5508 321.331 15.8411C320.844 16.3726 320.28 16.827 319.658 17.1888C317.648 18.2255 316.421 20.0173 315.977 22.5642C315.289 26.5245 314.841 28.6912 314.635 29.0644C314.413 29.4376 314.041 30.0752 313.519 30.972C313.304 31.387 313.19 31.8468 313.184 32.3145C313.216 33.0384 313.406 33.7462 313.741 34.388C314.113 35.1707 314.258 35.6735 314.191 35.9015C314.123 36.1296 313.741 36.4976 313.297 37.0212C312.327 37.3944 311.21 38.2912 309.947 39.7115C309.423 43.2191 308.642 48.1487 307.603 54.5003C306.406 56.742 305.362 59.0626 304.479 61.4463C304.699 63.5404 304.402 66.6782 303.586 70.8596C303.063 71.5266 302.505 72.1988 301.913 72.8761C301.013 74.0307 300.505 75.4437 300.462 76.9089C300.462 78.7025 301.392 80.3837 303.25 81.9526C304.742 83.1448 307.045 83.7461 310.174 83.7461C313.262 83.6269 316.34 83.317 319.39 82.8182C322.345 82.3396 325.326 82.0401 328.316 81.9214C331.665 81.994 334.935 79.2294 338.126 73.6277L341.358 72.5081C342.328 71.912 343.423 71.3158 344.652 70.7145C345.881 70.1132 346.939 69.9163 347.832 70.1392Z" fill="black"/>
<path d="M416.216 11.7616C417.337 14.6981 417.257 17.9604 415.994 20.8381C415.046 21.517 414.151 22.2655 413.314 23.0774L412.307 24.534C410.893 26.5556 409.33 27.4524 407.619 27.2243C406.731 22.896 406.282 21.061 406.282 21.7348C406.335 20.3076 406.8 18.9265 407.619 17.7591C408.513 16.375 408.962 15.2762 408.962 14.452C408.962 13.9267 408.292 12.769 406.953 10.9789C406.058 9.85924 404.496 9.11289 402.265 8.73968C400.241 8.43331 398.174 8.62535 396.24 9.29942C395.724 9.52231 394.748 9.40832 393.339 8.96253C392.34 8.58101 391.278 8.39108 390.21 8.40267C388.589 8.76635 386.988 9.21452 385.413 9.74526C384.481 10.8852 383.391 11.8854 382.176 12.7154C380.299 14.2158 378.679 16.014 377.38 18.039C376.709 18.5608 375.704 19.4575 374.365 20.7292C374.365 21.4757 374.287 22.5953 374.143 24.0882C374.065 25.0575 373.957 26.0684 373.807 27.1155C373.731 28.7604 373.694 29.918 373.694 30.5884C373.694 31.2571 373.322 32.1021 372.578 33.1077C371.835 34.1133 371.577 34.9219 371.799 35.518C372.69 38.877 375.368 40.5582 379.832 40.5617C382.882 40.5617 384.519 39.2536 384.742 36.6376C384.707 36.2574 384.798 35.8762 384.999 35.5523C385.2 35.2284 385.502 34.9796 385.858 34.8441C389.207 33.7245 391.662 33.1647 393.225 33.1647C396.054 33.1647 398.063 34.3967 399.25 36.8606C399.472 37.8351 399.064 39.0273 398.021 40.4476C396.978 41.8679 396.054 42.7284 395.233 43.0394C394.307 42.9538 393.376 42.9157 392.445 42.9254C391.757 43.5993 390.79 44.6083 389.544 45.9525C389.063 46.0304 388.573 46.0304 388.093 45.9525C387.644 45.3564 387.2 44.7034 386.751 43.9932C386.302 43.2831 385.857 42.9565 385.413 43.0394C385.042 42.9669 384.556 43.3971 383.963 44.3301C383.631 44.9263 383.217 45.4724 382.734 45.9525C381.247 46.8476 378.793 46.9599 375.372 46.2895C372.47 45.6917 370.386 46.9236 369.119 49.9854C367.261 55.3659 366.256 58.0563 366.104 58.0563C365.572 58.9861 365.232 60.0138 365.103 61.0783C365.027 62.4261 365.027 65.709 365.103 70.9271C366.823 71.9638 367.684 72.9728 367.684 73.9543C367.665 74.2145 367.544 74.4567 367.348 74.6282C366.041 75.1649 364.834 75.9223 363.781 76.8675C363.559 77.5165 363.446 78.1977 363.445 78.8839C363.445 81.8765 365.975 83.1085 371.035 82.5798H375.495L379.512 79.6666C381.67 78.2497 383.457 77.6899 384.871 77.9871C385.543 78.1357 386.174 77.6503 386.766 76.5306C387.437 74.9652 387.921 74.0683 388.217 73.8402C389.04 73.1733 390.933 71.1949 393.896 67.9051C396.054 65.6623 397.617 64.5409 398.584 64.5409C399.844 64.5409 400.847 65.6243 401.594 67.791C393.932 72.7984 390.585 77.6537 391.552 82.357C390.536 82.3196 389.52 82.4331 388.537 82.6938C387.896 83.7378 387.064 84.6505 386.085 85.3841C384.102 85.4412 382.126 85.6283 380.168 85.944C380.089 85.944 378.974 87.2883 376.822 89.9768C376.652 90.1735 376.41 90.2946 376.151 90.3137C375.702 90.3137 375.088 89.9924 374.308 89.36C373.528 88.7276 372.914 88.4062 372.47 88.4062C369.071 88.0137 365.711 87.3392 362.423 86.3897C362.351 86.3897 361.643 86.4675 360.301 86.6179C355.62 83.0308 353.314 78.6973 353.383 73.6174C353.304 73.3432 353.192 73.0802 353.047 72.8347C352.868 72.5243 352.756 72.1801 352.717 71.8239C352.637 68.2403 353.154 65.7764 354.265 64.4321V60.0624C354.477 58.3635 355.313 56.8052 356.609 55.6925C357.057 54.87 357.652 53.6364 358.396 51.9915C358.876 51.3828 359.323 50.7477 359.733 50.0891C360.248 49.537 360.563 48.8265 360.626 48.0727C361.509 47.1169 362.329 46.1058 363.084 45.0454C364.35 43.48 364.796 42.0234 364.421 40.6757C364.199 39.9292 363.042 39.0325 360.962 37.9854C360.736 36.9941 360.624 35.9802 360.626 34.9634C360.626 32.496 361.557 27.9759 363.419 21.4031C363.564 21.1785 364.791 19.4231 367.101 16.1367C368.588 14.122 370.038 13.0853 371.453 13.0265L374.69 9.77639C375.805 9.10771 377.478 7.98288 379.714 6.41744C380.23 5.51895 381.271 4.50984 382.837 3.39018C383.935 3.14464 385.058 3.03158 386.183 3.0533H394.252C397.526 2.75611 401.171 3.39192 405.188 4.96082C407.727 5.44018 410.227 6.11424 412.664 6.97718C413.01 7.72203 413.421 8.43497 413.892 9.10769C414.82 9.84451 415.607 10.7436 416.216 11.7616ZM361.421 94.0045C360.675 94.077 359.557 94.6369 358.071 95.6839C356.876 95.6839 356.281 95.1656 356.284 94.1289C356.284 92.3353 356.954 91.29 358.293 90.9928C358.592 90.8424 359.222 91.0446 360.192 91.6044C361.163 92.1642 361.643 92.7448 361.643 93.341C361.635 93.579 361.558 93.8096 361.421 94.0045ZM360.415 71.2588V70.8131H360.301V71.2588H360.415ZM369.341 29.2407C369.734 29.1816 370.091 28.976 370.34 28.6647C370.589 28.3534 370.711 27.9593 370.684 27.5612C370.684 26.1461 370.012 25.3583 368.675 25.2079C368.291 25.4659 367.977 25.8165 367.762 26.2276C367.548 26.6387 367.439 27.0971 367.447 27.5612C367.447 28.8329 368.078 29.3927 369.341 29.2407Z" fill="black"/>
</g>
<defs>
<clipPath id="clip0_1_296">
<rect width="417" height="120" fill="white"/>
</clipPath>
</defs>
</svg>
