<svg width="199" height="26" viewBox="0 0 199 26" fill="none" xmlns="http://www.w3.org/2000/svg">
  <path
    d="M9.96294 8.52398C9.8155 8.52595 9.66912 8.49856 9.53238 8.44338C9.39564 8.3882 9.27125 8.30635 9.16647 8.2026C9.0539 8.10017 8.9645 7.97488 8.90426 7.83512C8.84402 7.69535 8.81432 7.54434 8.81714 7.39217V5.94247C8.81935 5.78988 8.78936 5.63853 8.72917 5.49829C8.66898 5.35806 8.57995 5.23207 8.46782 5.12854C8.36263 5.02558 8.2381 4.94448 8.10139 4.88992C7.96469 4.83536 7.81852 4.80842 7.67135 4.81066H6.48014C6.33291 4.80803 6.18664 4.83479 6.04988 4.88937C5.91312 4.94396 5.78866 5.02527 5.68371 5.12854C5.57105 5.23165 5.48161 5.35756 5.42138 5.49789C5.36115 5.63823 5.33151 5.78978 5.33439 5.94247V9.08639C5.33156 9.23856 5.36126 9.38958 5.4215 9.52934C5.48175 9.66911 5.57115 9.7944 5.68371 9.89683C5.78866 10.0001 5.91312 10.0814 6.04988 10.136C6.18664 10.1906 6.33291 10.2173 6.48014 10.2147H10.714C10.7733 10.2147 10.8991 10.2986 11.0913 10.4627C11.2834 10.6269 11.4895 10.8121 11.6991 11.0286L13.3828 12.7089C13.6409 12.9623 13.8391 13.2702 13.9627 13.6102C14.1052 13.9417 14.1834 14.2974 14.1933 14.6581V20.429C14.1832 20.7829 14.1049 21.1317 13.9627 21.456C13.8366 21.7906 13.6386 22.0935 13.3828 22.3433L11.6991 24.0515C11.4815 24.2703 11.2332 24.4562 10.962 24.6034C10.7511 24.7359 10.5115 24.8161 10.2634 24.8374H4.09077C3.81573 24.8189 3.54835 24.7389 3.30829 24.6034C3.01789 24.4636 2.75237 24.2772 2.52231 24.0515L0.814102 22.3433C0.57216 22.0851 0.380273 21.7842 0.248197 21.456C0.0963594 21.1341 0.0119698 20.7846 0.00019058 20.429V17.6728C-0.00268215 17.5201 0.0269502 17.3686 0.0871806 17.2282C0.147411 17.0879 0.236859 16.962 0.349515 16.8589C0.454813 16.7561 0.579348 16.6751 0.716025 16.6205C0.852701 16.566 0.998797 16.5389 1.14594 16.541H4.28987C4.43942 16.5365 4.58834 16.5623 4.72763 16.6169C4.86692 16.6716 4.99372 16.7539 5.10032 16.8589C5.20591 16.9658 5.28855 17.0931 5.34321 17.233C5.39787 17.373 5.42342 17.5226 5.41822 17.6728V19.1225C5.41535 19.2752 5.44498 19.4267 5.50521 19.5671C5.56544 19.7074 5.65489 19.8333 5.76755 19.9364C5.98043 20.1437 6.26685 20.2581 6.56397 20.2543H7.75518C8.05216 20.2573 8.33835 20.1431 8.55165 19.9364C8.66378 19.8329 8.75282 19.7069 8.81301 19.5667C8.8732 19.4264 8.90318 19.2751 8.90098 19.1225V15.9332C8.90075 15.7835 8.86958 15.6355 8.80947 15.4984C8.74936 15.3614 8.6616 15.2382 8.55165 15.1367C8.45012 15.0268 8.32693 14.939 8.18988 14.8789C8.05282 14.8187 7.90484 14.7876 7.75518 14.7874H3.83927C3.62975 14.7602 3.43037 14.6809 3.25937 14.5568C3.00627 14.4 2.77187 14.2148 2.56073 14.0049L0.852522 12.2932C0.611751 12.0381 0.424147 11.7377 0.300605 11.4094C0.158053 11.084 0.0797527 10.7341 0.0700385 10.3789L0.0386112 4.60805C0.0504063 4.25127 0.134784 3.90063 0.286618 3.57755C0.41864 3.25031 0.610558 2.95059 0.852522 2.69376L2.56073 0.982061C2.78077 0.766586 3.02451 0.576741 3.28731 0.416157C3.48439 0.277503 3.71452 0.19317 3.95453 0.171631H10.2179C10.4945 0.189907 10.7627 0.273723 11.0004 0.416157C11.2873 0.565928 11.5508 0.75655 11.7829 0.982061L13.4666 2.69376C13.7221 2.94255 13.92 3.24419 14.0465 3.57755C14.1887 3.90309 14.267 4.25294 14.2771 4.60805V7.38518C14.2801 7.53738 14.2505 7.68847 14.1903 7.82827C14.13 7.96807 14.0405 8.09333 13.9278 8.19562C13.8228 8.29905 13.6983 8.38069 13.5616 8.43585C13.425 8.491 13.2787 8.51859 13.1313 8.517L9.96294 8.52398Z"
    fill="#D7AE6E" />
  <path
    d="M38.1638 0.199318C38.3166 0.195536 38.4685 0.223025 38.6103 0.280093C38.7521 0.337161 38.8807 0.422607 38.9882 0.531181C39.0985 0.633249 39.1864 0.756997 39.2465 0.894657C39.3066 1.03232 39.3376 1.18092 39.3376 1.33113V7.68186C39.3335 8.05437 39.309 8.42637 39.2642 8.7962C39.2257 9.17252 39.1627 9.54594 39.0756 9.91404L36.3194 23.7473C36.2729 24.034 36.1525 24.3037 35.9701 24.5298C35.913 24.6198 35.8361 24.6955 35.7453 24.7512C35.6545 24.8069 35.5522 24.8411 35.4461 24.8512H30.1119C30.0045 24.839 29.9009 24.8041 29.8082 24.7487C29.7154 24.6932 29.6355 24.6186 29.5739 24.5298C29.3882 24.311 29.2545 24.0531 29.1827 23.7752L28.1103 19.8314C28.0125 19.5414 27.9112 19.3982 27.8064 19.3982C27.7016 19.3982 27.6072 19.5414 27.5304 19.8314L26.4475 23.7752C26.3578 24.0486 26.2207 24.3041 26.0423 24.5298C25.9804 24.6215 25.8987 24.698 25.8031 24.7537C25.7075 24.8094 25.6006 24.8427 25.4903 24.8512H20.1596C20.0562 24.8401 19.9567 24.8053 19.8689 24.7496C19.781 24.6938 19.7072 24.6186 19.6531 24.5298C19.4743 24.3016 19.3543 24.0328 19.3038 23.7473L16.5092 9.91404C16.4206 9.54682 16.3622 9.17296 16.3345 8.7962C16.2961 8.36304 16.2751 7.98926 16.2751 7.68186V1.33113C16.2751 1.18092 16.3061 1.03232 16.3662 0.894657C16.4263 0.756997 16.5143 0.633249 16.6245 0.531181C16.7275 0.424402 16.8514 0.339866 16.9883 0.28279C17.1253 0.225714 17.2726 0.197304 17.4209 0.199318H20.5649C20.7132 0.197918 20.8602 0.226609 20.9971 0.283648C21.134 0.340688 21.2579 0.424896 21.3613 0.531181C21.471 0.63364 21.5586 0.757464 21.6187 0.895036C21.6788 1.03261 21.71 1.18102 21.7106 1.33113V6.9867C21.7139 7.36853 21.7385 7.74988 21.784 8.12899C21.8329 8.56565 21.8853 8.93943 21.9447 9.24683L22.9577 14.6404C23.0171 14.9513 23.094 15.105 23.1918 15.105C23.2896 15.105 23.3734 14.9618 23.4503 14.6718L24.8476 9.21888C24.9337 8.85527 24.9966 8.48658 25.0362 8.11502C25.082 7.74061 25.1065 7.36389 25.1096 6.9867V1.35908C25.1076 1.20445 25.1376 1.05108 25.1977 0.908607C25.2578 0.766131 25.3467 0.637633 25.4589 0.531181C25.5674 0.422838 25.6966 0.337576 25.8389 0.280541C25.9812 0.223506 26.1336 0.195875 26.2868 0.199318H29.3888C29.5421 0.195875 29.6944 0.223506 29.8367 0.280541C29.979 0.337576 30.1083 0.422838 30.2167 0.531181C30.3251 0.639626 30.4103 0.768889 30.4673 0.911176C30.5244 1.05346 30.552 1.20582 30.5485 1.35908V6.9867C30.5516 7.36389 30.5761 7.74061 30.6219 8.11502C30.6593 8.48895 30.7318 8.85853 30.8385 9.21888L32.2008 14.6718C32.2987 14.9618 32.3965 15.105 32.4908 15.105C32.5851 15.105 32.655 14.9513 32.6934 14.6404L33.7414 9.24683C33.809 8.87692 33.858 8.50383 33.8881 8.12899C33.9265 7.69583 33.944 7.31507 33.944 6.9867V1.33113C33.9439 1.18092 33.9749 1.03232 34.0351 0.894657C34.0952 0.756997 34.1831 0.633249 34.2933 0.531181C34.3966 0.424732 34.5205 0.340417 34.6574 0.283366C34.7943 0.226314 34.9414 0.197715 35.0898 0.199318H38.1638Z"
    fill="#D7AE6E" />
  <path
    d="M54.5227 18.3262C54.5869 18.6949 54.6301 19.067 54.652 19.4406C54.6834 19.8772 54.6974 20.2475 54.6974 20.5584V23.7023C54.7018 23.8491 54.6772 23.9953 54.625 24.1325C54.5729 24.2698 54.4942 24.3954 54.3935 24.5023C54.2911 24.6148 54.1658 24.7042 54.026 24.7645C53.8862 24.8247 53.7353 24.8544 53.5831 24.8516H50.4392C50.2895 24.8514 50.1415 24.8202 50.0044 24.7601C49.8674 24.7 49.7442 24.6122 49.6427 24.5023C49.5327 24.4007 49.4449 24.2776 49.3848 24.1405C49.3247 24.0035 49.2936 23.8555 49.2934 23.7058V23.105C49.2964 22.9528 49.2668 22.8017 49.2065 22.6619C49.1463 22.5221 49.0568 22.3968 48.944 22.2945C48.8389 22.1916 48.7143 22.1105 48.5776 22.0559C48.4409 22.0014 48.2947 21.9744 48.1476 21.9767H46.9878C46.8376 21.9711 46.6879 21.9964 46.5479 22.0511C46.4078 22.1057 46.2805 22.1886 46.1739 22.2945C46.0682 22.4007 45.9855 22.5274 45.9308 22.6668C45.8761 22.8062 45.8507 22.9553 45.856 23.105V23.7163C45.8558 23.866 45.8246 24.014 45.7645 24.151C45.7044 24.2881 45.6166 24.4112 45.5067 24.5128C45.4056 24.6232 45.2825 24.7113 45.1453 24.7715C45.0082 24.8316 44.86 24.8625 44.7102 24.8621H41.5663C41.4141 24.8649 41.2631 24.8352 41.1233 24.775C40.9836 24.7147 40.8583 24.6253 40.7559 24.5128C40.6529 24.4076 40.5718 24.283 40.5172 24.1463C40.4627 24.0096 40.4358 23.8635 40.438 23.7163V20.5724C40.438 20.2615 40.438 19.8737 40.4939 19.4545C40.5497 19.0353 40.5707 18.6476 40.6127 18.3402L43.3374 1.3141C43.3958 1.00689 43.5602 0.729953 43.802 0.531619C44.0432 0.322719 44.3527 0.209606 44.6718 0.213732H50.4147C50.7286 0.215171 51.0318 0.327799 51.2706 0.531619C51.5172 0.723069 51.6779 1.00441 51.7177 1.3141L54.5227 18.3262ZM46.4009 16.2652C46.378 16.4038 46.3858 16.5457 46.4238 16.681C46.4618 16.8162 46.5292 16.9414 46.621 17.0477C46.7165 17.1559 46.8352 17.2411 46.9683 17.2967C47.1015 17.3524 47.2455 17.3771 47.3895 17.3691H47.7948C47.9387 17.3764 48.0825 17.3513 48.2155 17.2957C48.3485 17.24 48.4674 17.1553 48.5633 17.0477C48.6539 16.9407 48.7202 16.8154 48.7576 16.6803C48.795 16.5452 48.8026 16.4035 48.7799 16.2652L47.7668 8.58006C47.6481 7.94429 47.5432 7.94429 47.4454 8.58006L46.4009 16.2652Z"
    fill="#D7AE6E" />
  <path
    d="M77.5468 0.530473C77.7305 0.756076 77.8282 1.03952 77.8227 1.33042V23.7186C77.8225 23.8683 77.7913 24.0163 77.7312 24.1534C77.6711 24.2904 77.5833 24.4136 77.4734 24.5151C77.3675 24.627 77.2396 24.7158 77.0977 24.7759C76.9558 24.836 76.803 24.8662 76.649 24.8644H73.505C73.3553 24.8648 73.2071 24.834 73.07 24.7738C72.9328 24.7137 72.8098 24.6256 72.7086 24.5151C72.5987 24.4136 72.5109 24.2904 72.4508 24.1534C72.3907 24.0163 72.3595 23.8683 72.3593 23.7186V15.251C72.3593 14.9401 72.3348 14.7794 72.2859 14.7724C72.237 14.7655 72.1776 14.9227 72.0973 15.251L70.1271 22.9047C70.027 23.2193 69.8286 23.4936 69.5612 23.6872C69.3108 23.89 68.9996 24.0032 68.6774 24.0086H65.9212C65.6032 24.0036 65.2963 23.8902 65.0514 23.6872C64.7928 23.4943 64.6089 23.2178 64.5309 22.9047L62.414 14.989C62.3336 14.6781 62.2673 14.5279 62.2079 14.5384C62.1485 14.5489 62.1241 14.7096 62.1241 15.017V23.7186C62.1256 23.866 62.0981 24.0123 62.0429 24.149C61.9878 24.2857 61.9061 24.4101 61.8027 24.5151C61.7002 24.6277 61.5749 24.7171 61.4352 24.7773C61.2954 24.8376 61.1444 24.8673 60.9923 24.8644H57.8483C57.6987 24.8642 57.5506 24.8331 57.4136 24.7729C57.2765 24.7128 57.1534 24.625 57.0519 24.5151C56.9419 24.4136 56.8542 24.2904 56.794 24.1534C56.7339 24.0163 56.7028 23.8683 56.7025 23.7186V1.33042C56.6954 1.04159 56.7879 0.759111 56.9645 0.530473C57.0373 0.428622 57.1332 0.345455 57.2443 0.287775C57.3554 0.230094 57.4786 0.199536 57.6038 0.19861H63.5179C63.832 0.198825 64.1356 0.311606 64.3737 0.516497C64.6244 0.714802 64.8035 0.989562 64.8837 1.29899L67.0006 11.1604C67.0775 11.4888 67.1578 11.653 67.2452 11.653C67.3325 11.653 67.4163 11.4888 67.4932 11.1604L69.5891 1.29899C69.6694 0.989562 69.8484 0.714802 70.0991 0.516497C70.3372 0.311606 70.6409 0.198825 70.955 0.19861H76.8411C76.9769 0.192018 77.1122 0.218826 77.2353 0.276682C77.3583 0.334538 77.4652 0.421681 77.5468 0.530473Z"
    fill="#D7AE6E" />
  <path
    d="M93.3921 0.954157C93.6042 1.16496 93.78 1.40927 93.9126 1.67726C94.0353 1.9006 94.1046 2.14928 94.1152 2.40386V13.2783C94.1058 13.5743 94.0369 13.8654 93.9126 14.1342C93.793 14.4312 93.6161 14.7018 93.3921 14.9306C93.0908 15.1911 92.7314 15.3755 92.3442 15.4686C91.956 15.5976 91.5513 15.6705 91.1425 15.6852H86.4126C86.263 15.6854 86.115 15.7166 85.9779 15.7767C85.8409 15.8368 85.7177 15.9246 85.6162 16.0345C85.5056 16.1355 85.4173 16.2586 85.3572 16.3957C85.297 16.5329 85.2662 16.6812 85.2668 16.831V23.7336C85.2666 23.8833 85.2355 24.0313 85.1754 24.1683C85.1153 24.3054 85.0275 24.4285 84.9175 24.5301C84.8161 24.6402 84.693 24.7281 84.5559 24.7882C84.4188 24.8483 84.2707 24.8794 84.1211 24.8794H80.9771C80.825 24.8822 80.674 24.8525 80.5342 24.7923C80.3944 24.732 80.2691 24.6427 80.1667 24.5301C80.0633 24.4251 79.9816 24.3006 79.9265 24.1639C79.8713 24.0273 79.8437 23.881 79.8453 23.7336V1.3454C79.8433 1.19743 79.8706 1.05052 79.9258 0.913199C79.981 0.775878 80.0629 0.650875 80.1667 0.545448C80.2711 0.436577 80.3972 0.350794 80.5368 0.293635C80.6764 0.236475 80.8264 0.20921 80.9771 0.21359H91.4569C91.817 0.216983 92.1729 0.290548 92.5048 0.43017C92.8327 0.543602 93.1345 0.721795 93.3921 0.954157ZM87.5934 11.0846C87.7443 11.0898 87.8945 11.063 88.0342 11.0058C88.174 10.9485 88.2999 10.8623 88.4038 10.7527C88.5067 10.6475 88.5878 10.523 88.6424 10.3863C88.697 10.2496 88.7239 10.1034 88.7217 9.95626V5.89361C88.7239 5.74644 88.697 5.60028 88.6424 5.46358C88.5878 5.32687 88.5067 5.20233 88.4038 5.09715C88.2994 4.98828 88.1733 4.9025 88.0337 4.84534C87.8941 4.78818 87.7441 4.76091 87.5934 4.76529H86.4301C86.2818 4.76389 86.1348 4.79258 85.9979 4.84962C85.861 4.90666 85.7371 4.99086 85.6337 5.09715C85.5237 5.19869 85.4359 5.32184 85.3758 5.4589C85.3157 5.59595 85.2846 5.74395 85.2843 5.89361V9.95626C85.2846 10.1059 85.3157 10.2539 85.3758 10.391C85.4359 10.528 85.5237 10.6512 85.6337 10.7527C85.7367 10.8595 85.8605 10.944 85.9975 11.0011C86.1345 11.0582 86.2817 11.0866 86.4301 11.0846H87.5934Z"
    fill="#D7AE6E" />
  <path
    d="M148.956 20.2676C149.108 20.2654 149.259 20.2954 149.398 20.3556C149.538 20.4158 149.663 20.5049 149.766 20.6169C149.87 20.7223 149.952 20.8473 150.007 20.9847C150.062 21.122 150.09 21.2689 150.087 21.4169V23.7364C150.081 24.0242 149.963 24.2982 149.759 24.5014C149.657 24.614 149.531 24.7034 149.392 24.7636C149.252 24.8239 149.101 24.8536 148.949 24.8507H138.158C138.008 24.8505 137.86 24.8194 137.723 24.7592C137.586 24.6991 137.463 24.6114 137.362 24.5014C137.252 24.3995 137.165 24.2762 137.105 24.1393C137.045 24.0023 137.013 23.8545 137.012 23.705V1.31673C137.013 1.16661 137.044 1.01821 137.104 0.880633C137.164 0.743061 137.252 0.619232 137.362 0.516773C137.465 0.410488 137.589 0.32628 137.726 0.26924C137.863 0.212201 138.01 0.183515 138.158 0.184915H141.302C141.453 0.180477 141.604 0.207705 141.744 0.264853C141.884 0.322002 142.011 0.407808 142.116 0.516773C142.323 0.731149 142.437 1.01862 142.434 1.31673V19.1323C142.434 19.2819 142.465 19.4299 142.525 19.567C142.585 19.7041 142.673 19.8272 142.783 19.9288C142.885 20.039 143.009 20.1269 143.147 20.187C143.284 20.2471 143.433 20.2781 143.583 20.2781L148.956 20.2676Z"
    fill="#D7AE6E" />
  <path
    d="M166.177 18.3262C166.243 18.6948 166.287 19.0669 166.31 19.4406C166.338 19.8772 166.352 20.2475 166.352 20.5584V23.7023C166.354 23.8495 166.327 23.9957 166.273 24.1324C166.218 24.2691 166.137 24.3936 166.034 24.4988C165.931 24.6114 165.805 24.7009 165.665 24.7611C165.525 24.8213 165.373 24.851 165.22 24.8481H162.076C161.926 24.8482 161.778 24.8171 161.64 24.757C161.502 24.6969 161.378 24.609 161.276 24.4988C161.167 24.3969 161.08 24.2736 161.019 24.1367C160.959 23.9997 160.928 23.8519 160.927 23.7023V23.105C160.931 22.9542 160.904 22.8042 160.847 22.6646C160.79 22.525 160.704 22.3989 160.595 22.2945C160.49 22.1912 160.365 22.1098 160.227 22.0552C160.09 22.0007 159.943 21.974 159.795 21.9767H158.636C158.486 21.9713 158.337 21.9968 158.197 22.0515C158.058 22.1061 157.931 22.1889 157.825 22.2945C157.719 22.4005 157.636 22.5271 157.58 22.6665C157.525 22.8059 157.499 22.9551 157.504 23.105V23.7163C157.503 23.8659 157.471 24.0137 157.411 24.1506C157.351 24.2876 157.264 24.4108 157.154 24.5128C157.053 24.6227 156.93 24.7105 156.793 24.7706C156.656 24.8307 156.508 24.8619 156.358 24.8621H153.214C153.062 24.8663 152.91 24.8372 152.77 24.7769C152.63 24.7166 152.505 24.6264 152.404 24.5128C152.3 24.4077 152.219 24.2833 152.163 24.1466C152.108 24.0099 152.081 23.8637 152.082 23.7163V20.5724C152.082 20.2615 152.103 19.8737 152.142 19.4545C152.18 19.0353 152.218 18.6476 152.257 18.3402L154.982 1.3141C155.04 1.00689 155.204 0.729953 155.446 0.531619C155.687 0.322719 155.997 0.209606 156.316 0.213732H162.059C162.373 0.214562 162.676 0.327267 162.915 0.531619C163.038 0.625837 163.141 0.743491 163.218 0.877793C163.296 1.0121 163.346 1.16038 163.365 1.3141L166.177 18.3262ZM158.059 16.2652C158.035 16.4035 158.043 16.5454 158.08 16.6806C158.117 16.8159 158.184 16.9412 158.276 17.0477C158.372 17.1553 158.49 17.24 158.623 17.2957C158.756 17.3513 158.9 17.3764 159.044 17.3691H159.449C159.593 17.3766 159.737 17.3516 159.87 17.296C160.003 17.2404 160.122 17.1555 160.218 17.0477C160.31 16.9414 160.377 16.8162 160.415 16.681C160.453 16.5457 160.461 16.4038 160.438 16.2652L159.422 8.58006C159.306 7.94429 159.198 7.94429 159.104 8.58006L158.059 16.2652Z"
    fill="#D7AE6E" />
  <path
    d="M182.676 8.49312C182.67 8.85432 182.591 9.21062 182.445 9.5411C182.311 9.87451 182.114 10.1792 181.866 10.4389L181.342 10.9908C181.231 11.0956 181.143 11.2219 181.083 11.3618C181.023 11.5017 180.992 11.6524 180.992 11.8047C180.992 11.9565 181.023 12.1066 181.083 12.246C181.143 12.3854 181.231 12.511 181.342 12.6152L181.866 13.1391C182.116 13.4024 182.313 13.7121 182.445 14.0509C182.59 14.3817 182.669 14.7378 182.676 15.0989V21.5649C182.666 21.9256 182.588 22.2811 182.445 22.6128C182.321 22.9512 182.123 23.2578 181.866 23.5106L181.342 24.0625C181.071 24.3006 180.763 24.4919 180.43 24.6284C180.101 24.7815 179.744 24.8659 179.382 24.8765H169.58C169.43 24.8765 169.281 24.8455 169.143 24.7854C169.006 24.7253 168.882 24.6373 168.78 24.5271C168.67 24.4252 168.583 24.302 168.523 24.165C168.463 24.028 168.431 23.8802 168.431 23.7307V1.34244C168.428 1.18985 168.458 1.03851 168.518 0.898268C168.579 0.758029 168.668 0.63204 168.78 0.528517C168.885 0.425134 169.011 0.343789 169.148 0.289215C169.285 0.23464 169.432 0.207931 169.58 0.210636H179.382C179.743 0.219596 180.099 0.297864 180.43 0.441186C180.764 0.570546 181.072 0.757344 181.342 0.99312L181.866 1.573C182.12 1.82244 182.318 2.1239 182.445 2.45679C182.588 2.78233 182.666 3.13219 182.676 3.4873V8.49312ZM174.963 4.7833C174.815 4.78128 174.667 4.80969 174.53 4.86676C174.393 4.92384 174.269 5.00837 174.166 5.11515C174.056 5.21669 173.969 5.33985 173.909 5.4769C173.848 5.61396 173.817 5.76195 173.817 5.91161V8.35689C173.814 8.50905 173.844 8.66007 173.904 8.79984C173.964 8.9396 174.054 9.06489 174.166 9.16732C174.271 9.27139 174.395 9.35345 174.532 9.40864C174.669 9.46384 174.815 9.49107 174.963 9.4887H176.151C176.299 9.49075 176.445 9.4634 176.583 9.40823C176.72 9.35306 176.845 9.27118 176.951 9.16732C177.063 9.06447 177.152 8.9391 177.212 8.79943C177.272 8.65977 177.302 8.50896 177.3 8.35689V5.91161C177.299 5.76205 177.268 5.61425 177.208 5.47728C177.147 5.34031 177.06 5.21708 176.951 5.11515C176.847 5.0086 176.722 4.92426 176.585 4.86722C176.447 4.81017 176.299 4.78162 176.151 4.7833H174.963ZM176.151 20.2689C176.301 20.2689 176.449 20.2379 176.587 20.1778C176.725 20.1177 176.848 20.0297 176.951 19.9195C177.06 19.818 177.148 19.6948 177.208 19.5578C177.269 19.4207 177.3 19.2727 177.3 19.1231V15.2071C177.302 15.0551 177.272 14.9043 177.212 14.7646C177.152 14.6249 177.063 14.4996 176.951 14.3967C176.845 14.2933 176.72 14.212 176.582 14.1574C176.445 14.1028 176.298 14.0761 176.151 14.0788H174.963C174.816 14.0758 174.669 14.1024 174.532 14.157C174.396 14.2116 174.271 14.2931 174.166 14.3967C174.054 14.4991 173.964 14.6244 173.904 14.7642C173.844 14.904 173.814 15.055 173.817 15.2071V19.1231C173.817 19.2728 173.848 19.421 173.908 19.5582C173.968 19.6953 174.056 19.8184 174.166 19.9195C174.268 20.03 174.391 20.1181 174.528 20.1783C174.665 20.2384 174.813 20.2693 174.963 20.2689H176.151Z"
    fill="#D7AE6E" />
  <path
    d="M194.724 8.52398C194.576 8.52603 194.429 8.49868 194.292 8.44351C194.155 8.38835 194.03 8.30646 193.924 8.2026C193.812 8.09975 193.723 7.97438 193.663 7.83472C193.603 7.69505 193.573 7.54424 193.575 7.39217V5.94247C193.577 5.78988 193.547 5.63853 193.487 5.49829C193.427 5.35806 193.338 5.23207 193.226 5.12854C193.12 5.02516 192.995 4.94382 192.858 4.88924C192.72 4.83467 192.573 4.80796 192.426 4.81066H191.238C191.091 4.80764 190.944 4.83422 190.808 4.88882C190.671 4.94343 190.546 5.02494 190.442 5.12854C190.329 5.23165 190.239 5.35756 190.179 5.49789C190.119 5.63823 190.089 5.78978 190.092 5.94247V9.08639C190.089 9.23856 190.119 9.38958 190.179 9.52934C190.24 9.66911 190.329 9.7944 190.442 9.89683C190.546 10.0004 190.671 10.0819 190.808 10.1366C190.944 10.1912 191.091 10.2177 191.238 10.2147H195.521C195.577 10.2147 195.702 10.2986 195.898 10.4627C196.094 10.6269 196.293 10.8121 196.506 11.0286L198.19 12.7089C198.447 12.9632 198.645 13.2709 198.769 13.6102C198.912 13.9417 198.99 14.2974 199 14.6581V20.429C198.99 20.7829 198.912 21.1317 198.769 21.456C198.642 21.7899 198.444 22.0925 198.19 22.3433L196.506 24.0515C196.287 24.2703 196.038 24.4562 195.765 24.6034C195.555 24.7369 195.315 24.8172 195.067 24.8374H188.831C188.556 24.8184 188.289 24.7385 188.049 24.6034C187.76 24.4627 187.496 24.2763 187.266 24.0515L185.554 22.3433C185.313 22.0851 185.121 21.7842 184.989 21.456C184.838 21.1339 184.755 20.7844 184.744 20.429V17.6728C184.74 17.5215 184.767 17.3709 184.824 17.2308C184.881 17.0906 184.967 16.9639 185.076 16.8589C185.29 16.6517 185.578 16.5375 185.876 16.541H189.02C189.17 16.5366 189.319 16.5625 189.459 16.6171C189.599 16.6717 189.726 16.7539 189.834 16.8589C189.939 16.9658 190.022 17.0931 190.077 17.233C190.131 17.373 190.157 17.5226 190.152 17.6728V19.1225C190.149 19.2752 190.178 19.4267 190.239 19.5671C190.299 19.7074 190.388 19.8333 190.501 19.9364C190.606 20.0392 190.731 20.1202 190.867 20.1748C191.004 20.2293 191.15 20.2564 191.297 20.2543H192.485C192.783 20.2578 193.071 20.1436 193.285 19.9364C193.397 19.8329 193.486 19.7069 193.546 19.5667C193.607 19.4264 193.637 19.2751 193.634 19.1225V15.9332C193.634 15.7835 193.603 15.6355 193.543 15.4984C193.483 15.3614 193.395 15.2382 193.285 15.1367C193.183 15.0265 193.059 14.9386 192.922 14.8785C192.784 14.8183 192.635 14.7873 192.485 14.7874H188.534C188.325 14.7596 188.126 14.6804 187.954 14.5568C187.701 14.4002 187.467 14.215 187.256 14.0049L185.544 12.2932C185.304 12.0379 185.118 11.7374 184.996 11.4094C184.85 11.0847 184.771 10.7345 184.762 10.3789L184.734 4.60805C184.744 4.25147 184.827 3.90079 184.978 3.57755C185.11 3.25031 185.302 2.95059 185.544 2.69376L187.256 0.982061C187.476 0.766586 187.72 0.576741 187.982 0.416157C188.179 0.277503 188.409 0.19317 188.649 0.171631H194.913C195.189 0.189907 195.458 0.273723 195.695 0.416157C195.981 0.567657 196.245 0.75811 196.478 0.982061L198.162 2.69376C198.416 2.94319 198.614 3.24465 198.741 3.57755C198.884 3.90309 198.962 4.25294 198.972 4.60805V7.38518C198.974 7.53726 198.944 7.68806 198.884 7.82773C198.824 7.96739 198.735 8.09277 198.623 8.19562C198.517 8.29947 198.392 8.38136 198.255 8.43653C198.118 8.4917 197.971 8.51905 197.823 8.517L194.724 8.52398Z"
    fill="#D7AE6E" />
  <path
    d="M133.69 8.8449C133.784 8.81059 133.866 8.75094 133.928 8.6726C133.99 8.59426 134.028 8.50032 134.04 8.40126C134.049 8.35629 134.049 8.31 134.04 8.26502C134.043 8.25123 134.043 8.2369 134.04 8.2231V8.20564C134.011 8.07508 133.935 7.95998 133.825 7.88303C133.716 7.80608 133.582 7.77287 133.449 7.78994C132.723 7.88582 131.984 7.76729 131.323 7.44893C130.663 7.13056 130.11 6.62623 129.732 5.99791C129.307 5.33766 129.099 4.56038 129.138 3.77569C129.178 2.991 129.463 2.23851 129.953 1.62436C130.042 1.51862 130.086 1.3817 130.075 1.24356C130.064 1.10542 129.998 0.977314 129.893 0.887282C129.788 0.798556 129.653 0.753765 129.515 0.762224C129.378 0.770682 129.249 0.831739 129.156 0.932696L124.22 6.33675C123.479 4.44431 122.203 2.80826 120.549 1.62785C119.07 0.575651 117.302 0.00700356 115.487 0C113.671 0.00651162 111.902 0.575172 110.422 1.62785C108.767 2.80826 107.492 4.44431 106.75 6.33675L101.814 0.925708C101.721 0.824751 101.592 0.763694 101.455 0.755236C101.318 0.746777 101.182 0.791573 101.077 0.8803C100.973 0.970841 100.908 1.09882 100.897 1.23669C100.886 1.37455 100.929 1.51126 101.018 1.61738C101.508 2.2313 101.794 2.98385 101.833 3.76867C101.873 4.55348 101.664 5.33086 101.238 5.99092C100.861 6.62019 100.309 7.12531 99.6481 7.4438C98.9875 7.76229 98.2481 7.8802 97.5212 7.78295C97.388 7.76516 97.2531 7.79853 97.1435 7.87632C97.0339 7.95411 96.9579 8.07054 96.9308 8.20214C96.9277 8.21594 96.9277 8.23027 96.9308 8.24407C96.9239 8.29038 96.9239 8.33748 96.9308 8.38379C96.9432 8.4821 96.9823 8.57512 97.0439 8.65273C97.1055 8.73034 97.1872 8.78956 97.2802 8.82394C98.0199 9.08756 98.6584 9.57648 99.1058 10.2219C99.5532 10.8673 99.787 11.6368 99.7743 12.422C99.7829 13.1006 99.6087 13.7691 99.2701 14.3573C98.9314 14.9454 98.4408 15.4317 97.8496 15.765L97.371 15.9048C97.2426 15.9409 97.1329 16.0246 97.0641 16.1388C96.9953 16.253 96.9726 16.3892 97.0007 16.5196C97.0278 16.65 97.1036 16.7652 97.2126 16.8418C97.3216 16.9184 97.4557 16.9505 97.5876 16.9318H97.7168H97.7762C97.8179 16.9369 97.8602 16.9369 97.902 16.9318C98.5811 16.9047 99.2552 17.0595 99.8546 17.38C100.454 17.7006 100.957 18.1753 101.311 18.7552C101.733 19.4173 101.938 20.1944 101.897 20.9783C101.857 21.7623 101.572 22.514 101.084 23.1288C100.998 23.2355 100.956 23.3715 100.968 23.5082C100.98 23.645 101.044 23.7719 101.147 23.8624C101.244 23.9474 101.368 23.9934 101.496 23.9916C101.57 23.9924 101.643 23.9775 101.71 23.948C101.778 23.9185 101.838 23.875 101.888 23.8205L107.777 17.3579L110.223 23.8973L110.481 24.051C110.562 24.0964 112.455 25.1793 115.508 25.1793C118.561 25.1793 120.461 24.0929 120.542 24.044L120.793 23.8903L123.238 17.3579L129.093 23.803C129.141 23.8587 129.201 23.9031 129.268 23.9333C129.335 23.9635 129.407 23.9786 129.481 23.9776C129.61 23.9803 129.735 23.9327 129.83 23.8449C129.934 23.7556 129.999 23.6295 130.011 23.4933C130.023 23.3571 129.982 23.2214 129.897 23.1148C129.407 22.501 129.121 21.749 129.08 20.9645C129.04 20.1801 129.246 19.4026 129.67 18.7413C130.023 18.1613 130.526 17.6862 131.124 17.365C131.723 17.0438 132.397 16.8883 133.075 16.9143C133.117 16.9252 133.159 16.9311 133.201 16.9318C133.221 16.9352 133.241 16.9352 133.261 16.9318H133.393C133.525 16.9504 133.658 16.9182 133.767 16.8415C133.875 16.7649 133.95 16.6497 133.977 16.5196C134.006 16.3915 133.986 16.2572 133.922 16.1428C133.857 16.0285 133.752 15.9423 133.627 15.9013L133.145 15.765C132.555 15.4308 132.065 14.9444 131.726 14.3564C131.388 13.7684 131.213 13.1004 131.221 12.422C131.211 11.6434 131.443 10.881 131.886 10.2402C132.328 9.59944 132.959 9.11188 133.69 8.8449ZM113.932 14.8673C113.932 15.3249 113.751 15.7639 113.427 16.0875C113.103 16.4111 112.664 16.5929 112.207 16.5929C111.749 16.5929 111.31 16.4111 110.987 16.0875C110.663 15.7639 110.481 15.3249 110.481 14.8673V7.73405C110.481 7.27637 110.663 6.83745 110.987 6.51382C111.31 6.1902 111.749 6.00838 112.207 6.00838C112.664 6.00838 113.103 6.1902 113.427 6.51382C113.751 6.83745 113.932 7.27637 113.932 7.73405V14.8673ZM120.489 14.8673C120.489 15.3249 120.307 15.7639 119.984 16.0875C119.66 16.4111 119.221 16.5929 118.764 16.5929C118.306 16.5929 117.867 16.4111 117.543 16.0875C117.22 15.7639 117.038 15.3249 117.038 14.8673V7.73405C117.038 7.27637 117.22 6.83745 117.543 6.51382C117.867 6.1902 118.306 6.00838 118.764 6.00838C119.221 6.00838 119.66 6.1902 119.984 6.51382C120.307 6.83745 120.489 7.27637 120.489 7.73405V14.8673Z"
    fill="#D7AE6E" />
</svg>