<svg width="16" height="14" viewBox="0 0 16 14" fill="none" xmlns="http://www.w3.org/2000/svg">
  <path
    d="M0 12.0819V11.9358C0.0891498 11.8808 0.188518 11.8446 0.292109 11.8294C1.37971 11.8137 2.44689 11.5307 3.39962 11.0056C3.71832 10.8328 4.03699 10.6202 4.3557 10.4076C4.04658 10.3594 3.74068 10.2929 3.43949 10.2083C2.65681 9.96175 1.9881 9.44326 1.55392 8.74653C1.50121 8.68456 1.46775 8.60844 1.45827 8.52763C1.4488 8.44681 1.46349 8.36499 1.50042 8.2925C1.53735 8.22001 1.59484 8.16003 1.66577 8.12023C1.73669 8.08043 1.8178 8.06261 1.89887 8.06889C2.14352 8.05475 2.38736 8.02814 2.6293 7.98916H2.53658C2.06452 7.86913 1.62285 7.65082 1.24073 7.34859C0.85862 7.04636 0.544425 6.66698 0.318694 6.23509C0.200032 5.99887 0.0980018 5.75459 0.0132924 5.50417V5.29159C0.0796896 5.11884 0.172672 4.94605 0.371863 4.91948C0.503339 4.89299 0.638836 4.89299 0.770312 4.91948L1.46087 5.05241L1.31465 4.93278L1.15547 4.79993C0.578296 4.26801 0.210763 3.54668 0.119632 2.76681C0.0500716 2.28718 0.0818284 1.79827 0.212679 1.33164C0.222949 1.26729 0.246833 1.20596 0.283031 1.15179C0.319229 1.09762 0.366611 1.05193 0.422115 1.01785C0.477619 0.983763 0.539985 0.962099 0.604643 0.954339C0.6693 0.946579 0.734913 0.95289 0.796896 0.972872C0.901271 1.01575 0.996019 1.07901 1.07571 1.15893C1.52721 1.54429 1.93888 1.96951 2.40366 2.31501C3.60468 3.20189 5.00422 3.7813 6.48038 4.00266L7.44991 4.10891C7.45612 4.08269 7.45612 4.05539 7.44991 4.02918C7.30664 3.27891 7.41884 2.50228 7.76861 1.82335C8.01827 1.31873 8.39392 0.887172 8.85923 0.570547C9.32454 0.253922 9.86374 0.0629412 10.4245 0.0161085C10.9116 -0.0325566 11.4033 0.0293815 11.8632 0.197339C12.323 0.365297 12.7391 0.634959 13.0804 0.986173C13.1098 0.998599 13.1413 1.00499 13.1733 1.00499C13.2052 1.00499 13.2367 0.998599 13.2662 0.986173C13.7585 0.889152 14.2363 0.728317 14.6871 0.507771C14.8067 0.507771 14.9262 0.401464 15.0191 0.507771C15.1121 0.614078 15.0191 0.746975 15.0191 0.853282C14.8617 1.09461 14.6886 1.32541 14.5012 1.54426C14.3153 1.7303 14.1029 1.88977 13.917 2.04923C14.297 1.98862 14.6737 1.9088 15.0457 1.81005C15.1652 1.81005 15.2847 1.81003 15.3511 1.87647C15.3716 1.8963 15.3878 1.92005 15.3989 1.9463C15.4101 1.97256 15.4158 2.0008 15.4158 2.02931C15.4158 2.05783 15.4101 2.08603 15.3989 2.11229C15.3878 2.13854 15.3716 2.16229 15.3511 2.18212C14.9926 2.52761 14.6339 2.8731 14.2621 3.20531C14.2299 3.23073 14.2036 3.263 14.1853 3.29975C14.1669 3.33651 14.1569 3.37684 14.1559 3.41793C14.2103 4.95944 13.8914 6.49128 13.2264 7.88283C12.5695 9.3425 11.5555 10.613 10.2783 11.577C8.79783 12.677 7.02133 13.3067 5.17902 13.3842C3.62239 13.4821 2.06592 13.1898 0.65068 12.5338C0.423284 12.3989 0.205843 12.2479 0 12.0819Z"
    fill="#D7AE6E" />
</svg>